<?xml version="1.0" encoding="utf-8"?>
<!-- Generator: Adobe Illustrator 28.2.0, SVG Export Plug-In . SVG Version: 6.00 Build 0)  -->
<svg version="1.1" id="Layer_1" xmlns="http://www.w3.org/2000/svg" xmlns:xlink="http://www.w3.org/1999/xlink" x="0px" y="0px"
	 viewBox="0 0 1080 1080" style="enable-background:new 0 0 1080 1080;" xml:space="preserve">
<style type="text/css">
	.st0{clip-path:url(#SVGID_00000167383200745268455830000017174899991357442481_);fill:#338FB7;}
	.st1{clip-path:url(#SVGID_00000167383200745268455830000017174899991357442481_);}
	.st2{clip-path:url(#SVGID_00000023274780182874541050000002858632178324215484_);fill:#FFFFFF;}
	.st3{clip-path:url(#SVGID_00000038383902383642705040000001946276144517058441_);fill:#EAF3F8;}
	.st4{fill:#338FB7;}
	.st5{fill:none;}
	.st6{clip-path:url(#SVGID_00000038378807259556938310000008528296070652160386_);fill:#EAF3F8;}
	.st7{clip-path:url(#SVGID_00000052080944193534455980000012996757681463948977_);}
	.st8{clip-path:url(#SVGID_00000036969304035008742880000004944530106180702088_);fill:#1E7493;}
	.st9{clip-path:url(#SVGID_00000036969304035008742880000004944530106180702088_);fill:#9BDAEA;}
	.st10{clip-path:url(#SVGID_00000036969304035008742880000004944530106180702088_);fill:#FEE182;}
	.st11{clip-path:url(#SVGID_00000036969304035008742880000004944530106180702088_);fill:#F8B6BB;}
	.st12{clip-path:url(#SVGID_00000069388674016127804130000008450394036164183428_);fill:#1E7493;}
	.st13{clip-path:url(#SVGID_00000098917341782717900760000009014203737910499726_);fill:#338FB7;}
	.st14{clip-path:url(#SVGID_00000098917341782717900760000009014203737910499726_);}
	.st15{clip-path:url(#SVGID_00000101088070630875753130000014033086446694605208_);fill:#FFFFFF;}
	.st16{clip-path:url(#SVGID_00000101088070630875753130000014033086446694605208_);fill:#338FB7;}
	.st17{clip-path:url(#SVGID_00000101088070630875753130000014033086446694605208_);fill:#E98A4A;}
	.st18{clip-path:url(#SVGID_00000101088070630875753130000014033086446694605208_);fill:#41A387;}
	.st19{clip-path:url(#SVGID_00000101088070630875753130000014033086446694605208_);fill:none;stroke:#1E7493;stroke-miterlimit:10;}
	.st20{clip-path:url(#SVGID_00000101088070630875753130000014033086446694605208_);fill:none;stroke:#338FB7;stroke-miterlimit:10;}
	.st21{clip-path:url(#SVGID_00000101088070630875753130000014033086446694605208_);fill:#F3B71C;}
	.st22{clip-path:url(#SVGID_00000101088070630875753130000014033086446694605208_);fill:none;stroke:#41A387;stroke-miterlimit:10;}
	.st23{clip-path:url(#SVGID_00000101088070630875753130000014033086446694605208_);fill:none;stroke:#F3B71C;stroke-miterlimit:10;}
	.st24{clip-path:url(#SVGID_00000101088070630875753130000014033086446694605208_);fill:none;stroke:#E98A4A;stroke-miterlimit:10;}
	.st25{clip-path:url(#SVGID_00000101088070630875753130000014033086446694605208_);fill:#1E7493;}
	.st26{clip-path:url(#SVGID_00000101088070630875753130000014033086446694605208_);fill:#9BDAEA;}
	.st27{clip-path:url(#SVGID_00000101088070630875753130000014033086446694605208_);fill:#FEE182;}
	.st28{clip-path:url(#SVGID_00000101088070630875753130000014033086446694605208_);fill:#F8B6BB;}
	.st29{clip-path:url(#SVGID_00000062891924559642457950000011560802606144005041_);fill:#1E7493;}
	.st30{clip-path:url(#SVGID_00000118377004491782845240000002760352263191657871_);fill:#1E7493;}
	.st31{clip-path:url(#SVGID_00000118377004491782845240000002760352263191657871_);fill:#41A387;}
	.st32{clip-path:url(#SVGID_00000070102999916194714800000004808583372898590631_);}
	.st33{clip-path:url(#SVGID_00000132087616169860288500000007302704471166860730_);fill:#338FB7;}
	.st34{clip-path:url(#SVGID_00000111190422516127426610000005063609965933963180_);fill:#1E7493;}
	.st35{clip-path:url(#SVGID_00000077302397908894122900000004240967441223316919_);fill:#1E7493;}
	.st36{clip-path:url(#SVGID_00000077302397908894122900000004240967441223316919_);fill:#338FB7;}
	.st37{clip-path:url(#SVGID_00000077302397908894122900000004240967441223316919_);fill:#9BDAEA;}
	.st38{clip-path:url(#SVGID_00000077302397908894122900000004240967441223316919_);fill:#FEE182;}
	.st39{clip-path:url(#SVGID_00000077302397908894122900000004240967441223316919_);fill:#F8B6BB;}
	
		.st40{clip-path:url(#SVGID_00000146486233700718235060000000539154786455685520_);fill:none;stroke:#A09F9F;stroke-width:0.957;stroke-miterlimit:10;}
	
		.st41{clip-path:url(#SVGID_00000146486233700718235060000000539154786455685520_);fill:none;stroke:#A09F9F;stroke-width:0.957;stroke-miterlimit:10;stroke-dasharray:3.615,3.615;}
	
		.st42{clip-path:url(#SVGID_00000146486233700718235060000000539154786455685520_);fill:none;stroke:#A09F9F;stroke-width:0.957;stroke-miterlimit:10;stroke-dasharray:3.644,3.644;}
	.st43{clip-path:url(#SVGID_00000146486233700718235060000000539154786455685520_);}
	.st44{clip-path:url(#SVGID_00000063596909684678576530000015748706164060302244_);fill:#1E7493;}
	.st45{clip-path:url(#SVGID_00000089542308880161278610000003973796980735907993_);fill:#1E7493;}
	
		.st46{clip-path:url(#SVGID_00000089542308880161278610000003973796980735907993_);fill:none;stroke:#D3D3D3;stroke-width:1.224;stroke-miterlimit:10;stroke-dasharray:3.827,3.827;}
	.st47{clip-path:url(#SVGID_00000025403598219317084330000018398797109686420902_);fill:#1E7493;}
	
		.st48{clip-path:url(#SVGID_00000025403598219317084330000018398797109686420902_);fill:none;stroke:#D3D3D3;stroke-width:1.224;stroke-miterlimit:10;stroke-dasharray:3.827,3.827;}
	.st49{clip-path:url(#SVGID_00000000193450688345414050000009437850734184528053_);}
	.st50{clip-path:url(#SVGID_00000115506608518961105490000018332726680297543331_);}
	.st51{clip-path:url(#SVGID_00000158735997425393528290000013351862954416639655_);}
	.st52{opacity:0.6;clip-path:url(#SVGID_00000116939133404420597200000009364364139564338357_);}
	.st53{clip-path:url(#SVGID_00000040556321935390979590000004616499622486180001_);fill:#7B2A8D;}
	.st54{clip-path:url(#SVGID_00000060027841905087995110000002948634581710366080_);fill:#1E7493;}
	.st55{clip-path:url(#SVGID_00000116200745606623945320000006814237930873514889_);fill:#1E7493;}
	.st56{clip-path:url(#SVGID_00000115506608518961105490000018332726680297543331_);fill:#C465A7;}
	.st57{clip-path:url(#SVGID_00000018216499652180559620000016234103058052543105_);fill:#1E7493;}
	.st58{opacity:0.6;clip-path:url(#SVGID_00000018216499652180559620000016234103058052543105_);}
	.st59{clip-path:url(#SVGID_00000146482454113187675880000005690120797200756159_);fill:#1E7493;}
	.st60{clip-path:url(#SVGID_00000146482454113187675880000005690120797200756159_);fill:none;stroke:#000000;stroke-miterlimit:10;}
	.st61{clip-path:url(#SVGID_00000131344783088586129620000002329228939704698552_);fill:#1E7493;}
	.st62{clip-path:url(#SVGID_00000047034706379605090720000002349035763523325059_);fill:#1E7493;}
	.st63{opacity:0.67;clip-path:url(#SVGID_00000175291931382701330660000008119275716703745703_);}
	.st64{clip-path:url(#SVGID_00000147200499115385114840000012290655203078166957_);fill:#1E7493;}
	.st65{clip-path:url(#SVGID_00000175291931382701330660000008119275716703745703_);fill:#F05253;}
	.st66{opacity:0.6;clip-path:url(#SVGID_00000175291931382701330660000008119275716703745703_);}
	.st67{clip-path:url(#SVGID_00000050641286004156637700000000189383256477774261_);fill:#1E7493;}
	.st68{opacity:0.75;clip-path:url(#SVGID_00000119099872207921635310000006716759962495907727_);}
	.st69{clip-path:url(#SVGID_00000094586371513063352340000016106843115294629509_);}
	.st70{clip-path:url(#SVGID_00000119099872207921635310000006716759962495907727_);fill:#1E7493;}
	.st71{clip-path:url(#SVGID_00000019640747697618538240000013728816692828209053_);}
	.st72{clip-path:url(#SVGID_00000063621344717270678360000003583584715633415344_);}
	.st73{opacity:0.6;clip-path:url(#SVGID_00000108996549721493997480000005594081510309301943_);}
	.st74{clip-path:url(#SVGID_00000052074432083078753370000008501239850647750824_);fill:#1E7493;}
	.st75{clip-path:url(#SVGID_00000061445105201326149700000016201312740843573940_);fill:#1E7493;}
	.st76{clip-path:url(#SVGID_00000096031299860472078540000008290107692100789907_);fill:#1E7493;}
	.st77{clip-path:url(#SVGID_00000141435506024443457890000005849119366457400213_);fill:#1E7493;}
	.st78{clip-path:url(#SVGID_00000141435506024443457890000005849119366457400213_);fill:#F05253;}
	.st79{clip-path:url(#SVGID_00000045621068237896352060000006417466593251210379_);fill:#F05253;}
	.st80{clip-path:url(#SVGID_00000182487642345421146200000005283376989832687536_);fill:none;stroke:#606161;stroke-miterlimit:10;}
	.st81{clip-path:url(#SVGID_00000182487642345421146200000005283376989832687536_);fill:#FFFFFF;}
	.st82{clip-path:url(#SVGID_00000182487642345421146200000005283376989832687536_);}
	.st83{clip-path:url(#SVGID_00000009556053566071847540000013121019949266187413_);fill:#1E7493;}
	.st84{clip-path:url(#SVGID_00000009556053566071847540000013121019949266187413_);fill:#338FB7;}
	.st85{clip-path:url(#SVGID_00000009556053566071847540000013121019949266187413_);fill:#69B9D6;}
	.st86{clip-path:url(#SVGID_00000009556053566071847540000013121019949266187413_);fill:#A7DCE8;}
	.st87{clip-path:url(#SVGID_00000084522704144377997890000009605068993429379465_);fill:#41A387;}
	.st88{clip-path:url(#SVGID_00000084522704144377997890000009605068993429379465_);fill:#68BCA0;}
	.st89{clip-path:url(#SVGID_00000084522704144377997890000009605068993429379465_);fill:#91D1BB;}
	.st90{clip-path:url(#SVGID_00000084522704144377997890000009605068993429379465_);fill:#F3B71C;}
	.st91{clip-path:url(#SVGID_00000084522704144377997890000009605068993429379465_);fill:#F9CF71;}
	.st92{clip-path:url(#SVGID_00000084522704144377997890000009605068993429379465_);fill:#FFDB94;}
	.st93{clip-path:url(#SVGID_00000014592103745033402570000018395830427344755380_);fill:#E98A4A;}
	.st94{clip-path:url(#SVGID_00000014592103745033402570000018395830427344755380_);fill:#F4A56E;}
	.st95{clip-path:url(#SVGID_00000014592103745033402570000018395830427344755380_);fill:#FCC6A0;}
	
		.st96{clip-path:url(#SVGID_00000000906369823617083970000006784826458630757819_);fill:none;stroke:#A09F9F;stroke-width:0.254;stroke-miterlimit:10;}
	
		.st97{clip-path:url(#SVGID_00000000906369823617083970000006784826458630757819_);fill:none;stroke:#A09F9F;stroke-width:0.259;stroke-miterlimit:10;}
	
		.st98{clip-path:url(#SVGID_00000000906369823617083970000006784826458630757819_);fill:none;stroke:#A09F9F;stroke-width:0.272;stroke-miterlimit:10;}
	.st99{clip-path:url(#SVGID_00000000906369823617083970000006784826458630757819_);}
	.st100{clip-path:url(#SVGID_00000001661603521286634100000003402610157426959245_);fill:#1E7493;}
	.st101{clip-path:url(#SVGID_00000131332996189443975980000004735687363860868518_);fill:#1E7493;}
	.st102{clip-path:url(#SVGID_00000114768872428378739710000006500448485378267785_);}
	.st103{clip-path:url(#SVGID_00000172417287059485654950000015619476954003457957_);fill:#1E7493;}
	
		.st104{clip-path:url(#SVGID_00000093885972692889399810000015969318700684326048_);fill:none;stroke:#A09F9F;stroke-width:0.259;stroke-miterlimit:10;}
	
		.st105{clip-path:url(#SVGID_00000093885972692889399810000015969318700684326048_);fill:none;stroke:#A09F9F;stroke-width:0.272;stroke-miterlimit:10;}
	
		.st106{clip-path:url(#SVGID_00000142878418536274508300000000668632886082857403_);fill:none;stroke:#A09F9F;stroke-width:0.272;stroke-miterlimit:10;}
	
		.st107{clip-path:url(#SVGID_00000156567710658683151620000013980038497558310319_);fill:none;stroke:#A09F9F;stroke-width:0.254;stroke-miterlimit:10;}
	.st108{clip-path:url(#SVGID_00000118392458646707517130000008840970529312154541_);fill:#1E7493;}
	.st109{clip-path:url(#SVGID_00000010297360137032927190000016429981220987892641_);}
	.st110{clip-path:url(#SVGID_00000059281266172396929870000010254747448065164959_);fill:#1E7493;}
	
		.st111{clip-path:url(#SVGID_00000025411126649909254000000018156734771252038529_);fill:none;stroke:#A09F9F;stroke-width:0.254;stroke-miterlimit:10;}
	
		.st112{clip-path:url(#SVGID_00000149374316202904589630000014151900650654265997_);fill:none;stroke:#A09F9F;stroke-width:0.259;stroke-miterlimit:10;}
	
		.st113{clip-path:url(#SVGID_00000149374316202904589630000014151900650654265997_);fill:none;stroke:#A09F9F;stroke-width:0.272;stroke-miterlimit:10;}
	
		.st114{clip-path:url(#SVGID_00000052080927432538933240000005427994673376215687_);fill:none;stroke:#A09F9F;stroke-width:0.272;stroke-miterlimit:10;}
	.st115{clip-path:url(#SVGID_00000046297700303150675600000002020437412418767802_);fill:#1E7493;}
	.st116{clip-path:url(#SVGID_00000110469171007076274330000000450003019055023782_);}
	.st117{clip-path:url(#SVGID_00000088119107223541891280000001201412413670896519_);fill:#9BDAEA;}
	.st118{clip-path:url(#SVGID_00000088119107223541891280000001201412413670896519_);fill:#FEE182;}
	.st119{clip-path:url(#SVGID_00000088119107223541891280000001201412413670896519_);fill:#F8B6BB;}
	.st120{clip-path:url(#SVGID_00000088119107223541891280000001201412413670896519_);fill:#1E7493;}
	.st121{fill:#FFFFFF;}
	.st122{fill:#82CA9C;}
	.st123{fill:#3D3633;}
	.st124{fill:#1A1A18;}
	.st125{fill:#676767;}
	.st126{fill:#F6E4DB;}
	.st127{fill:#DE956D;}
	.st128{fill:none;stroke:#000000;stroke-width:1.2094;stroke-miterlimit:10;}
	.st129{fill:none;stroke:#1A1A18;stroke-width:1.2094;stroke-miterlimit:10;}
</style>
<g>
	<g>
		<path class="st123" d="M610.6,720.23l-0.16-0.21c-0.62-0.86-1.8-1.15-2.77-0.65c-1.07,0.56-1.48,1.88-0.93,2.95l3.2,6.13h6.83
			c-0.85-0.94-1.66-1.9-2.33-2.96L610.6,720.23z"/>
		<path class="st124" d="M587.47,705.37c-0.21-1.42-0.33-2.19-0.33-2.19c-4.1-0.44-9.56-0.94-15.61-1.45
			c0.04,0.05,0.09,0.08,0.11,0.13c0,0,0.91,1.45,2.46,4.14c0.06,0,0.12,0.01,0.18,0C578.67,705.96,583.07,705.72,587.47,705.37"/>
		<path class="st125" d="M810.08,726.08c-0.06,2.97,0.57,1.9,0.69,2.36C810.63,723.45,809.92,726.2,810.08,726.08"/>
		<polygon class="st125" points="808.63,676.96 808.88,677.83 808.25,670.59 		"/>
		<path class="st125" d="M808.64,631.03c-1.09,4.34,0.18,16.65-0.21,24.83l-0.25,1.35l0.88,3.69
			C808.92,650.95,808.34,638.03,808.64,631.03"/>
		<path class="st124" d="M810.99,606.53c-0.42,1.51-0.37-5.29-0.14,5.71c0.06-0.54,0.07-0.7,0.11-1.03
			C810.97,610.22,810.97,608.86,810.99,606.53"/>
		<path class="st124" d="M810.97,611.21C811,616.05,811.32,608.04,810.97,611.21"/>
		<path class="st124" d="M810.72,588.87l0.38,6.37c0.25-1.33,0.3-7,0.49-4.89C811.38,583.81,811.13,585.16,810.72,588.87"/>
		<path class="st124" d="M809.93,582.83l0.15,3.3C810.19,585.56,810.24,584.68,809.93,582.83"/>
		<path class="st124" d="M810.43,593.13l-0.33-7c-0.18,0.92-0.53,1.02,0.12,3.22C809.89,588.78,810.2,590.16,810.43,593.13"/>
		<path class="st124" d="M810.26,597.1c-0.24,3.57-0.38,8.19-0.76,1.79C809.64,611.09,810.41,609.29,810.26,597.1"/>
		<path class="st124" d="M807.52,628.68l-0.33,4.78l0.37,4.13C807.39,635.53,807.86,628.38,807.52,628.68"/>
		<path class="st124" d="M811.28,549.18c-0.23-0.41-0.61,2.14-0.91,2.61l0.27,4.71C810.79,554.08,810.94,549.5,811.28,549.18"/>
		<path class="st124" d="M810.37,551.79l-0.39-7.04C809.93,551.05,810.12,552.19,810.37,551.79"/>
		<polygon class="st124" points="808.73,581.7 809.56,593.27 808.72,579.46 		"/>
		<polygon class="st124" points="811.31,522.28 811.85,526.28 811.04,519.16 		"/>
		<path class="st124" d="M811.22,504.45c0.44,2.95,0.75-4.05,1.02-0.93c-0.08-4.84-0.46-8.98-0.81-12.71
			C811.63,494.77,811.58,498.98,811.22,504.45"/>
		<path class="st124" d="M810.94,484.55c0.16,1.92,0.32,3.99,0.5,6.26C811.33,488.71,811.19,486.64,810.94,484.55"/>
		<path class="st124" d="M810.09,532.76c0.14-0.55,0.5-1.6,0.65-5.55l-0.64,2.77C810.09,530.83,810.09,531.79,810.09,532.76"/>
		<path class="st124" d="M810.08,530.09l0.02-0.1c0.02-3.01,0.03-5.09,0.03-5.98C810.13,524.77,810.11,526.6,810.08,530.09"/>
		<path class="st124" d="M810.09,533.46v-0.69C810.03,533.03,810.01,533.19,810.09,533.46"/>
		<path class="st124" d="M809.31,563.23c-0.36-4.14-0.75-12.77-1.3-4.42C808.44,561.79,808.77,557.01,809.31,563.23"/>
		<path class="st124" d="M809.27,536.9l-0.14,7.47c0.17-0.14,0.42-1.5,0.6,0.56L809.27,536.9z"/>
		<polygon class="st124" points="809.07,533.24 809.27,536.9 809.33,534.12 		"/>
		<path class="st124" d="M810.33,497.36c-0.28-3.23-0.3-6.76-0.36-10.76c-0.12,4.29-0.19,8.71-0.19,12.91
			C809.99,500.11,810.36,501.95,810.33,497.36"/>
		<path class="st124" d="M810.15,513.27c-0.01-0.23-0.02-0.51-0.04-0.72C810.06,512.99,810.05,513.34,810.15,513.27"/>
		<polygon class="st124" points="809.99,447.3 809.86,447.93 809.97,448.09 		"/>
		<path class="st124" d="M809.67,500.23c-0.13,3.22,0.04,5.14,0.24,6.97c-0.04-2.41-0.08-4.95-0.12-7.68
			C809.7,499.25,809.63,499.2,809.67,500.23"/>
		<path class="st124" d="M810.64,473.59c-0.11,1.7-0.24,3.6-0.36,5.57C810.49,477.51,810.81,474.18,810.64,473.59"/>
		<path class="st124" d="M810.29,511.46c0.01,0.15,0.02,0.31,0.02,0.48C810.46,510.89,810.39,511.02,810.29,511.46"/>
		<path class="st124" d="M810.29,511.46c-0.1-1.66-0.26-2.96-0.39-4.26c0.07,1.94,0.14,3.75,0.21,5.35
			C810.16,512.15,810.23,511.75,810.29,511.46"/>
		<path class="st124" d="M805.82,435.4c0.6,0.56,1.15,9.02,0.51,16.32c0.45,7.18,2.43,2.49,3.54-3.78
			c-0.26-0.23-0.51-0.23-0.87-7.62c-0.32,2.58-0.76,16.4-1.31,10.16c-0.31-9.78,0.21-8.01,0.53-12.78
			c-0.76,4.05-1.1-12.45-2.2-10.32l0.39,8.59C806.25,436.12,805.97,433.01,805.82,435.4"/>
		<path class="st124" d="M809.81,462.02l0.07,3.05c0.11-3.47,0.34-5.96,0.81-10.52c-0.29-5.07-0.51-6.11-0.72-6.46l-0.08,14.97
			L809.81,462.02z"/>
		<path class="st124" d="M809.88,478.72c-0.65-2.38-0.93-9.68-1.64-5.21c0.05,8.92,0.55,6.25,0.84,11.59
			c-0.16-14.41,0.36,4.13,0.74-6.27c0.06,2.86,0.12,5.38,0.17,7.78c0.1-2.58,0.19-5.08,0.29-7.46c-0.02,0.13-0.02,0.23-0.04,0.34
			v0.06l-0.01-0.01c-0.08,0.62-0.12,0.82-0.09,0.13c0-0.06,0-0.23-0.01-0.3C810.04,479.27,809.96,479,809.88,478.72
			c0.14-4.18,0.17-0.66,0.25,0.65c0.03,0.05,0.06,0.17,0.1,0.18l0.01-0.05l-0.36-14.43C809.79,468.12,809.81,471.94,809.88,478.72"
			/>
		<path class="st124" d="M806.6,551.12c0.07-0.44,0.1-0.43,0.15-0.46C806.68,549.73,806.61,549.37,806.6,551.12"/>
		<path class="st124" d="M807,545.19c0.09,1.05,0.35,1.92,0.28,5.33c-0.2,2.96-0.31-0.01-0.53,0.14c0.18,2.06,0.47,7.2,0.8,0.75
			l-0.1-1.02c0.23-5.81,1.04-13.27,1.13-12.26C807.99,539.83,807.57,541.32,807,545.19"/>
		<path class="st124" d="M808.27,511.54l-0.32-12.02l-0.57,6.12l0.34-0.31C807.59,512.16,808.01,510.68,808.27,511.54"/>
		<polygon class="st124" points="810.31,445.93 811.01,447.52 810.02,440.58 		"/>
		<polygon class="st124" points="810.23,430.32 810.83,430.9 810.46,426.77 		"/>
		<path class="st125" d="M294.4,407.78l0.16,3.53C294.5,409.65,294.45,408.58,294.4,407.78"/>
		<path class="st125" d="M294.45,382.22l-0.3-0.62C294.31,382.77,294.43,383.26,294.45,382.22"/>
		<path class="st125" d="M616.93,232.51c-5.15-0.56-10.89-1.44-10.26-0.76l1.58,0.65C611.84,232.29,614.59,232.37,616.93,232.51"/>
		<path class="st125" d="M354.31,236.44c0.49,0.06,1,0.13,1.5,0.19c1.25-0.23,2.42-0.43,3.48-0.63
			C357.78,236.14,356.08,236.29,354.31,236.44"/>
		<path class="st125" d="M350.68,239.17l-6.78-0.42C345.43,238.89,347.61,239.04,350.68,239.17"/>
		<path class="st125" d="M295.1,547.37l0.67,4.12C295.77,545.05,295.43,547.88,295.1,547.37"/>
		<path class="st125" d="M809.99,270.4c0.25-4.43,0.37-7.97,0.39-11.07C810.01,264.68,809.44,268.99,809.99,270.4"/>
		<path class="st125" d="M287.41,397.72c0.12,2.15,0.26,3.08,0.4,3.02C287.69,398.52,287.57,397.26,287.41,397.72"/>
		<path class="st125" d="M810.38,246.51c-0.05,0.8-0.1,1.55-0.15,2.35c0.12,3.25,0.2,6.51,0.15,10.47
			C810.66,255.38,810.84,250.86,810.38,246.51"/>
		<path class="st125" d="M616,724.67c0.38,0.02,0.8,0.05,1.14,0.08C617.26,724.66,616.74,724.65,616,724.67"/>
		<path class="st125" d="M763.49,731.32c-1.46,0.02-3.82,0.04-6.05,0.05C758.53,731.42,760.35,731.42,763.49,731.32"/>
		<path class="st124" d="M810.52,367.49C810.56,370.81,810.59,368.02,810.52,367.49"/>
		<path class="st124" d="M807.91,383.6c-0.07-0.71-0.17-1.24-0.33-1.33C807.75,382.55,807.85,383.01,807.91,383.6"/>
		<path class="st125" d="M783.61,236.39c-0.1,0-0.17-0.01-0.29-0.01C784.31,236.52,784.14,236.49,783.61,236.39"/>
		<path class="st124" d="M810.21,372.48c0.06-1.26,0.13-2.69,0.2-4.23C810.38,368.94,810.32,370.23,810.21,372.48"/>
		<path class="st124" d="M810.53,371.8c-0.03,1.14-0.05,2.04-0.07,2.9C810.57,375.12,810.64,374.75,810.53,371.8"/>
		<path class="st124" d="M810.48,362.88c-0.02,1.89-0.05,3.65-0.07,5.36c0.04-0.66,0.08-0.93,0.11-0.75
			C810.51,366.52,810.5,365.15,810.48,362.88"/>
		<path class="st125" d="M344.74,726.44c0.21,0.02,0.46,0.04,0.71,0.06C348.79,726.23,347.33,726.27,344.74,726.44"/>
		<path class="st125" d="M530.74,239.35c0.15-0.01,0.25-0.02,0.38-0.03c-0.15-0.01-0.34-0.02-0.49-0.03L530.74,239.35z"/>
		<path class="st125" d="M518.85,239.84c5.06-0.83,7.95-0.72,11.78-0.55l-3.93-1.91L518.85,239.84z"/>
		<path class="st124" d="M380.11,731.37L380.11,731.37l-2.18-0.19C382.86,730.96,381.48,731.16,380.11,731.37 M809.61,342.4
			L809.61,342.4c0.1,1.12,0.2,1.05,0.3,0.56c-0.18-0.77-0.2-3.3-0.14-6.16C809.57,337.6,809.43,339.05,809.61,342.4z M809.92,331.2
			L809.92,331.2c-0.01-0.1-0.02-0.17-0.03-0.26C810.16,325.54,810.06,327.46,809.92,331.2z M372.69,237.84L372.69,237.84
			c-1.8,0.25-4.58,0.13-7.73-0.15C367.25,237.64,369.83,237.66,372.69,237.84z M294.12,344.15L294.12,344.15
			c0.16,2.42,0.63,7.24,0.2,9.01C293.48,350.41,293.87,348.27,294.12,344.15z M294.59,468.98l0.59-8.36
			c0.97,10.09,0.64,17.37,1.47,9.54c-2.07-1.18-0.21-32.47-2.27-33.63l0.44-5.51c0.04,1.57,0.05,1.84,0.08,3.38
			c0.99-10.7-1.49-7.95-1.2-21.74c0.16-4.81,0.46-8.16,0.7-4.89l-0.51-10.71c0.04-3.12,0.4-2.36,0.36,0.75l-0.16-16.35l0.06,0.13
			c-0.32-2.33-0.82-7.62-1.04-10.19c0.3-4.15,0.23,2.08,0.48,1.02l-0.5-9.05c0.53-3.69,1.05,3.82,0.97,10.06
			c2.06-8.45-0.52-7.5,0.68-25.74l0.26,8.54c1.17-5.51,0.75-12.18,1.48-21.85c-0.39,2.3-1.85,19.35-2.35,9.53
			c0.15-2.76,0.23-6.42-0.19-11.71c0.74-0.05,0.55-5.23,0.51-11.7l0.97,0.44c-0.28-7-0.78-6.44-1.21-10.56
			c0.1-7.8,0.85-9.42,1.49-11.25c0.15-12.49-1.21,8.62-1.4-6.16c0.37-10.39-0.02-17.69-0.61-30.11c0.34-7.27,0.6,1.27,0.88-1.34
			l-0.78-6.45c0.02-1.57,0.26-1.06,0.37-0.8c-0.3-5.43-0.97-0.46-1.23-8.99c-0.24-0.5-0.29-1.65-0.25-3.17
			c0.04-1.06,0.18-2.36,0.34-3.59c2.52,0.4,11.17,0.94,16.86,0.26c2.6,0.27-1.26,0.59-0.46,0.97c14.49-0.8,12.42-0.58,24.33-1.66
			l10.14,0.65c-7.44-0.73,2.07-1.6,10.41-2.3c-2.68-0.34-4.97-0.63-6.42-0.81l13.31-0.53c1.61,0.16,0.27,0.49-1.91,0.9
			c0.9-0.08,1.75-0.17,2.44-0.23c4.76,0.35,2.29,0.92-1.12,1.46c-1.6-0.2-3.21-0.4-4.79-0.6c-3.29,0.59-6.36,1.24-5.68,1.82
			c0.87-0.11,2.53-0.21,4.37-0.26c-0.86,0.15-1.41,0.3-1.01,0.4c0.45,0.1,1.83-0.11,4.01-0.36l3.03,1.09l0.73-0.43l17.41,0.68
			c12.45-1.09,23.29-2.71,43.06-3.15c-4.9,0.8-1.06,1.3-1.33,2.23c-5.39-0.99-15.3,0.43-25.55,0.22c5.34,0.11,4.17,0.57,2.81,0.72
			l18.28-0.91c-0.42,0.77,3.88,0.58,8.65,0.9c-3.6-1.52,13.62-1.01,21.07-1.48c0.45,0.51-1.33,1.03-10.4,0.91
			c10.01,1.14,12.93-1.79,22.76-0.81c-2.22,0.01-3.4-0.07-4.28,0.19c5.18-0.45,17.82-0.09,14.85,0.36l-2.2,0.01
			c14.7,0.18,44.76,0.01,46.96-1.28c0.14,0.17-1.93,1.56-2.81,1.82l26.24-4.34c-2.31,1.11,6.56,3.75-5.63,4.38
			c3.5,0.15,7.83,0.33,15.22-0.05c-2.39-0.16-5.96-1.6-2.69-1.7c8.96,1.24,6.22,0.66,17.26,1.72c-3.57-0.24,0.4-1.98,6.05-1.93
			c-0.88,0.26,0.48,1.72-1.59,1.9l14.08-1.71c-3.51,0.3-0.62,1.45,2.53,1.93c-1.47-0.34,12.18,0.03,15.93-0.14l-5.97-0.4
			c15.9,0.26,15.71-2.41,31.48-2.32c-1.91,0.36-4.72,2.17,3.31,2.39c3.68-0.88,16.28-4.22,30.24-4.89l2.67,0.5l10.71-0.57
			c-6.66,1.33-25.38,4.09-35.59,5.18c5.95,0.38,1.65,0.59,10.57,0.54c3.15,0.47-4.86,0.71-7.48,0.74l20.75,0.3
			c-0.92-1.02,15.87-1.03,15.07-1.87L651.13,240c-0.91-1.02,13.04-2.9,27.73-2.72c3.74,0.41-2.79,1.82-2.49,2.16
			c1.91-0.35,13.95-0.67,15.3-0.42l-6.23,0.55c8.18,0.38,13.35-1.35,23.19-0.38c3.4,0.06,10.13,1.31,10.72,0.71
			c-5.54-1.16-6.62-4.77-2.92-5.65c1.18,0.07,17.82,1.11,21.69,1.69c5.59,0.91-8.39,2.17-3.63,2.96c0.2-0.28,3.29-0.62,4.58-0.73
			c3.56,0.25-1.48,0.87,6.27,0.75c1.29-1.04,15.75,0.09,3.66-0.88c7.58-0.29,8.05,0.21,16.95,0.17c-2.83-0.67,7.99-2.28,15.58-2.58
			c-0.45,0.26,1.26,0.6,2.09,0.76c8.95,0.15,15.48,0.27,22.28,0.39c-0.06,4.61-0.12,9.36-0.18,15.1c-0.26,1.34-0.56,8.32-1,5.35
			c0.18,2.09,0.53,4,0.56,8.47c-0.89,8.64-0.14-9.96-1.21-3.37c0.6,0.56,0.83,11.55,1.2,17.92c0.94-1.96,0.18-14.7-0.19-21.07
			c1.28-0.04,2.62,11.06,3.22,26.2c0.32,12.03-0.83,5.21-0.65,7.3c-0.23,22.6,2.24,19.25,1.32,38.01c-0.82,7.45-1.63,0.34-2.21,1.99
			c-0.32-9.8,0.52-15.05,0.49-21.69l-0.39,8.17c-0.27-3.11-0.47-9.65-0.23-13.22c-0.73,6.25-0.14,38.18-0.82,55.62
			c0.27,3.09,0.56,8.44,0.88,5.91l-0.11-5.51c0.65-5.07,0.91,10.38,1.22,3.39c0.46,7.4,1.19,15.69,0.81,26.11l-0.93,1.96
			c0.27-0.22,0.55-6.81,0.26-9.73c0.42,4.34-1.25,15.97-0.03,20.73l0.65-7.3c0.47,7.42,1.45,16.61,1.16,25.85
			c0.92-4.2-0.1-2.13,0.97-8.69c-1.33,5.69,0.06-23.62-1.35-14.49c1.25-6.72,0.53-11.65,1.6-20.45c-0.31,0.27-0.59,3.12-0.43-4.63
			c-0.09-0.35-0.21-1.17-0.28-1.7c0.02-0.23,0.02-0.31,0.02-0.52c0,0.15-0.02,0.27-0.04,0.43c-0.05-0.33-0.05-0.36-0.01,0.16
			c-0.13,1.84-0.3,3.34-0.46,3.95c-0.71-3.85-0.68-16.17-1.05-20.35c0.14-4.59,0.35,1.93,0.68-0.58l-0.55-6.23
			c0.68-0.62,1.13-12.22,1.53-1.38l0.04-9.75c0.38-5.74,0.53-13.64,0.24-18.52c0.15-4.6-0.76-11.61-0.22-7.6l-0.43-15.29l0.18-0.14
			c0.08-15.09-1.13-31.07,0.1-48.32c-0.06-1.85-0.12-3.72-0.18-5.76c-0.03-3.13-0.06-6.52-0.1-10.39c-2.92-0.02-6.17-0.05-9.84-0.08
			l-1.66-0.59c-6.52,0.21-19.59-0.59-22.39,0.03c-7.04-1.59-31.66-0.35-43.13-0.63l-0.43,0.77c-7.9-0.04-15.46,0.18-25.27,0.49
			l0.61,0.68c-8.44,0.56-21.72-0.48-35.09-0.41c0.91-0.26,4.3-0.2,6.7-0.04c-15.97-1.54-33.69,1.12-48.17-0.01
			c-3.62,0.25-6.23,0.16-8.76-0.01c0.33-0.01,0.62-0.02,0.89-0.04c-0.37,0-0.92-0.01-1.48-0.01c-1.6-0.12-3.25-0.24-5.02-0.36
			c1.52,0.16,2.97,0.29,4.22,0.36c-2.78,0.01-7,0.1-11.14,0.27l-1.76-0.73c-0.34,0.01-0.61,0.01-0.96,0.02
			c-4.06-0.27-3.26,0.34-1.09,0.89c-2.08,0.12-3.99,0.27-5.47,0.44c-3.3-1.18-10.87,0.4-15.36-0.86
			c-2.79,0.61-20.81,0.47-23.01,1.76c-0.13-0.17-1.35-0.25,0.87-0.26c-4.61-0.15-9.22-0.3-13.36,0.07l-1.96-0.94l-10.07,1.26
			c-6.12-0.57-8.65-0.9-2.58-1.61c-14.67,1.1-11.91,0.41-24.38,1.51l0.61-0.61c-4.46,0.03-11.6,0.83-14.28,0.34
			c-9.97-1.14-49.36-0.15-74.97-1.22c4.97,1.77-11.91-0.8-12.92,0.58c-1.49-0.42-5.06-0.65-0.91-1.02
			c-13.07,0.41-19.64-0.67-28.66,0.49c-1.5-0.42,2.79-0.62,1.46-0.87c-1.05,0.09-4.14,0.37-5.52,0.11
			c-1.32-0.25,1.92-0.35,3.99-0.53c-13.36,0.07-14.7,1.36-15.67,2.58c-6.76-0.58-10.14-0.5-15.02,0.3c-2.36-0.4-6.29-0.81,2.01-0.96
			c-4.67-0.06-28.51-0.59-28.98,0.39c-1.46-0.25-6.52-0.07-7.75,0.03c-5.24-0.03-8.08-0.06-10.91-0.07c-3.19,0-6.35,0.01-12.17,0.03
			l3.87,0.16c-1.81,0.41-3.47,0.57-5.53,0.6c0.03,1.89-0.04,3.89-0.11,6.36c-0.07,2.28-0.13,4.35-0.09,7.09l-0.12-0.24
			c-0.85,19.01,0.41,8.21-0.56,26.96l0.73-1.02c1.57,1.75-0.93,16.61-0.32,27.49l0.41-3.92c0.54,5.94-2.13,16.61-2.33,22.58
			c-0.13,1.31-0.22-2.05-0.32-3.87c-0.93,15.62,0.95,2.02,1.17,13.67c-0.51,2.15-1.3-2.77-1.4,5.07
			c-0.42,3.91,1.67,22.73,0.69,33.43c0.4-2.36,0.79-4.69,1.09,0.71c0.14,8.3-1.5,22.42-0.25,29.9c-0.11,1.06-0.21,1.46-0.31,1.49
			c0.32,6.34,0.54,20.6,1.22,24.42c-2.52,5.86,1.22,39.4-1.1,39.26l0.13,19.49l-0.23-0.5c-0.15,12.46,0.4,16.86,0.96,21.25
			c-0.16,2.88-0.38,0.78-0.5,0.53c-0.47,18.21-0.36,20.02,0.79,35.28l-0.76,1.59c0.44,4.14-1.18,26.33-0.3,44.19
			c-0.09-0.18-0.23-0.55-0.34-1.96c0.89,20.09-2.08,48.1,0.66,55.46l0.68,13.26c0.21-17.15,1.19,2.55,1.65-4.5
			c0.16,6.74-0.83,17.44-0.97,9.15l0.13-1.29c-1.43-3.04-0.51,21.31-1.48,20.86c-0.12,18.27-0.24,36.31-0.35,54.04
			c16.92,0.16,33.55,0.29,49.85,0.43l-3.64-1.11l11.02,0.06c2.89,0.26,3.88,0.87-3.98,0.83c4.14,0.63,13.19-0.53,13.42-0.77
			c15.4,0.45-6.01,1.3-1.29,1.32l6.42-0.08l-1.45-0.12c5.19-0.46,5.66-0.94,15.11-0.89c5.99,0.23,3.07,0.69,5.43,0.73
			c-0.01,0.08,0.78,0.11,3.62,0.03l13.9,0.09l-5.55-0.87c6.16-0.43,13.06,0.05,6.65-0.94c9.41,1.53,51.83,0.54,57.61,1.02
			c8.63-0.63,17.14-0.62,27.69-0.54c-2.62-0.19-4.2-1.18,4.91-1.05c-3.34,2.03,16.65,0.88,24.01,2.35
			c-6.58-0.98,25.86-0.24,15.55-1.62c7.59,0.17,0.46,0.76,6.21,1.24c18.07-0.8,39.81,0.51,62.15,0.24c0.34-0.27-3.4-0.67,1.4-1.08
			l11.8,1.34c4.4-0.13,4.06-1.54,12.11-0.62c-1.13-0.23-2.83-0.57,0.13-0.65c43.74,1.3,89.4-1.07,133.82,1.38
			c-6.01-0.52-2.01-0.57,2.59-0.59c-2.99-0.13,0.06-0.66-0.52-1.02l18.6,1c3.39-1,19.94-0.07,21.88-1.03l-5.88,0.17
			c7.83-1.13-10.96-2.52-9.82-3.97c-8.77,1.29-23.12-1.91-37.52-0.07c-3.17-0.29,2.71-0.46,1.01-0.8
			c-3.65,0.62-8.05,0.75-16.22,0.47l0.92-0.16c-22.93,0.16-32.77-0.46-58.53-0.87l1.91,0.72c-5.54-0.11-6.7-0.33-9.3-0.51
			c-6.35,1.09,15.55,0.06,9.76,1.26c-7.34-1.47-39.04-0.02-44.01-1.69c-8.51-0.01,2.5,0.83-6.01,0.82l-2.26-0.44l-2.16,0.58
			c-5.58-0.1-8.4-0.66-8.61-1.04c1.36,0.05,3.85-0.11,5.3-0.14c-7.24-0.53-20.41,0.18-22.9,0.01l8.19,0.28
			c-23.25,0.42-51.63-0.17-74.08,0.74l1.7,0.34c-17.15,0.63-13.74-0.37-32.56-0.08l0.68-0.08c-3.77,0.33-8.8,0.51-13.95,0.47
			c4.75-0.4-8.95-0.78-2.71-1.22c-18.6,0.68-9.2,0.53-21.48,1.79l-2.84-0.56c-4.19,0.51-4.54,0.78-13.94,0.93
			c7.72-0.48-6.01-0.86,2.63-1.5c-19.73-1.24-29.29,1.24-38.35-0.56c-9.06,1.56,17.08,0.86,12,1.19c4.25,0.51-7.48,1.17-13.67,1.01
			c-6.3-0.03-10.71-2-26.58-1.96c1.56-0.05,1.7-0.06,3.25-0.1c-5.92-0.4-11.62,0.54-18.9-0.11c-4.08,0.94-9.45-0.05-10.63,1.15
			l14.54-0.28c-8.24,0.31-15.97,1.72-29.56,1.04c1.06-0.24,5.1-0.57,7.88-0.75c-3.98-0.35-7.66,0.25-11.77-0.12
			c1.18-1.2,17.67-0.26,26.5-1.17c-4.25-0.51-16.71,0.87-12.27-0.44c-6.38,1.66-15.62-0.21-26.36,1.06l0.7-0.73
			c-1.7,0.11-5.21,0.46-8.35,0.43l5.66-0.93c-4.34,0.39-8.54,0.23-12.68,0.01c-2.08-0.11-4.16-0.2-6.2-0.29l-3.1-0.06
			c-0.63,0-0.67,0.03-1.07,0.09c1.32,0.01,2.35,0.02,3.15,0.03c1.31,0.05,2.23,0.08,2.9,0.1c1.3,0.09,1.47,0.22,1.33,0.36
			c-0.28,0.29-1.82,0.64,1.87,0.9c-3.75,0.17-7.01,0.23-8.74,0.19c-1.27-0.03-2.11-0.15-2.65-0.3c0.14-0.77,0.31-1.39,0.48-1.93
			c0.18-0.73,0.36-0.5,0.52-2.36c0.31-3,0.53-7.31,0.42-15.04c0.1,3.27-0.44,12.26-0.77,7.16c0.15-4.59,0.42-10.66,0.81-13.47
			c-0.15-15.97-0.75,2.45-1.18-4.35c0.87-5.44-0.36-7.85-0.64-14.85l0.73-0.05c0.47-18.19-1.52-4.83-0.95-21.21l1.01,6.93
			l-0.27-8.55l0.83,1.76c-0.61-9.29-0.45-12.19-0.21-21.3c-0.52,2.13-1.34-1.18-1.36-9.24c0.43-5.5,0.7,3.08,0.59-8.35
			c0.46,2.58,1.04,5.4,0.37,10.38c0.23,0.51,0.45,2.55,0.69,3.07c0.51-5.92,0.12-14.88,0.11-19.02c-0.03,1.6-0.08,3.5-0.17,4.48
			l-1.02-16.57c0.28-2.61,0.5-0.53,0.72,1.51c-0.08-3.36-0.42-5.68-0.48-10.62c0.59,1.28,1.21,0.97,1.49,7.96l-0.66-15.79
			c0.26-1.05,0.71-8.1,0.93-6.05c0.36-8.74-1.15-21.46-0.69-33.06c-0.12-0.61-0.22-1.81-0.31-4.28c0.14-10.91,0.86-20.56,0.05-33.49
			l1.07-7.33c-0.25-10.12-1.35,9.92-1.75-6.93c-0.34-11.93,0.91-4.45,1.21-8.64c-0.53-5.93-1.63-16.25-0.76-27.21
			C294.67,462.74,294.51,465.59,294.59,468.98z"/>
		<path class="st125" d="M351.17,238.85c-0.68-0.13-0.87-0.26-1.04-0.4C349.18,238.58,349.16,238.72,351.17,238.85"/>
		<path class="st125" d="M294.98,546.61l-0.01,0.37c0.05,0.21,0.08,0.33,0.13,0.39L294.98,546.61z"/>
		<path class="st125" d="M738.94,239.28c-2.3-0.11-3.6-0.24-4.45-0.38C734.37,239.08,735.41,239.23,738.94,239.28"/>
		<path class="st124" d="M810.85,401.77l-0.2-7.18c0.05,3.47-0.12,4.71-0.24,6.46C810.59,400.89,810.84,399.53,810.85,401.77"/>
		<path class="st124" d="M806.31,464.06c0.03,1.1,0.07,2.17,0.11,3.26l0.34-0.28C806.73,462.56,806.45,459.44,806.31,464.06"/>
		<path class="st124" d="M808.41,408.41c-0.62,0.57-0.4,5.07-0.29,10.1v-0.89C808.98,419.11,808.69,413.74,808.41,408.41"/>
		<path class="st124" d="M808.13,419.68c0.01,1.55,0.02,3.13,0.02,4.65C808.5,424.91,808.23,422.44,808.13,419.68"/>
		<path class="st124" d="M810.01,356.61c-0.16,2.38,0.78,1.5,0.53,2.84C811.33,362.12,809.59,343.56,810.01,356.61"/>
		<polygon class="st124" points="806.38,412.48 807.14,410.68 806.52,407.87 		"/>
		<path class="st124" d="M806.93,372.79l-0.21,8.03c0.13-0.11,0.2,0.91,0.27,2.16C807.01,378.02,807.16,372.6,806.93,372.79"/>
		<path class="st124" d="M806.99,382.98c-0.02,2.58,0,5.03,0.13,6.46C807.08,388.05,807.03,385.07,806.99,382.98"/>
		<polygon class="st124" points="806.15,401.5 806.31,399.13 806.37,393.46 		"/>
		<path class="st125" d="M807.08,286.44l-0.22-8.77c-0.26-0.9-0.42,1.5-0.32,4.76C806.73,284.53,806.83,287.79,807.08,286.44"/>
		<path class="st125" d="M805,312.96c0.16-2.37,0.33-2.54,0.58-3.87l-0.95-0.27L805,312.96z"/>
		<path class="st125" d="M804.77,287.39c-0.26-0.88-0.75-12.72-0.69-1.61C804.35,286.67,804.57,295.45,804.77,287.39"/>
		<polygon class="st125" points="725.38,236.69 727.61,236.68 727.29,235.13 		"/>
		<path class="st125" d="M608.96,240.4c10.39,0.37,2.47-0.96,11.86-0.49c2.44-0.37-7.68-0.39-5.17-0.7
			C609.37,239.59,606.08,239.38,608.96,240.4"/>
		<path class="st125" d="M615.64,239.21c1-0.08,2.05-0.16,3.21-0.24C617.02,239.07,616.17,239.14,615.64,239.21"/>
		<polygon class="st125" points="787.96,732.16 794.65,732.48 790.34,731.96 		"/>
		<path class="st125" d="M800.78,731.01l1.58,0.99l4.01-0.89C804.86,731.14,801.94,731.23,800.78,731.01"/>
		<path class="st125" d="M296.11,325.6l-0.23-0.51c-0.26,1.04-0.28,2.6-0.32,5.73L296.11,325.6z"/>
		<polygon class="st125" points="295.37,416.2 295.39,414.64 294.5,417.55 		"/>
		<path class="st125" d="M296.5,492.23c-0.04-3.1-0.08-6.75-0.12-9.87C296.54,489.13,295.39,493.07,296.5,492.23"/>
		<path class="st123" d="M320.01,676.8c-0.36-4.94-1.37-9.74-2.1-14.62c-0.05-0.41-0.61-0.25-0.65,0.09c-0.57,4.56-0.67,9.12-1,13.7
			c-0.3,4.02-1.99,8.22-1.37,12.16c0.2,1.36,2.15,1.71,3,0.8C320.76,685.89,320.3,680.73,320.01,676.8"/>
		<path class="st126" d="M434.49,731.08c-3.87,1.07-7.81,1.9-11.77,2.7c-3.93,0.9-7.9,1.58-11.9,2.18
			c-3.98,0.71-7.99,1.17-12.02,1.57c-4.01,0.53-8.07,0.7-12.11,0.94c-8.1,0.42-16.26,0.09-24.37-0.6c-8.11-0.78-16.2-2.11-24.09-4.2
			c-7.88-2.16-15.63-4.84-23.08-8.21c-7.43-3.4-14.54-7.49-21.22-12.17c-6.68-4.67-13.04-9.81-18.73-15.66
			c-5.07-5.22-9.65-10.65-13.73-16.93c-2.72,0.63-5.36,0.96-8.17,1.04c-3.69,0.07-7.53-0.36-11.22-1.8
			c-1.33-0.52-2.6-1.22-3.82-1.99c0.18,0.2,0.32,0.4,0.52,0.59c13.06,13.65,23.49,7.25,23.49,7.25s54.67,74.1,145.81,57.18
			c23.39-4.35,42.16-9.41,57.19-14.56H444.2C440.98,729.37,437.77,730.29,434.49,731.08"/>
		<path class="st126" d="M512.73,698.47c-3.6,2.3-7.25,4.5-10.98,6.59c-7.06,3.85-14.23,7.55-21.64,10.66
			c-7.34,3.22-15.08,6.05-22.46,8.58c-4.49,1.45-8.96,2.84-13.44,4.15h21.06c34.27-11.73,48.95-23.81,53.63-28.42
			C516.83,699.53,514.77,699.01,512.73,698.47"/>
		<path class="st126" d="M694.45,689.71c8.41,4.46,19.7,7.92,33.02,8.48c13.27,0.72,28.63-1.4,44.01-7.12
			c3.83-1.43,7.69-3.01,11.4-4.87c1.88-0.9,3.69-1.91,5.41-2.97c0.77-0.56,1.44-0.88,2.4-1.7l0.67-0.54
			c0.05-0.04,0.37-0.31,0.19-0.14l0.29-0.29l1.15-1.14c5.36-4.72,9.88-10.73,13.38-17.56V328.9c-1-0.41-1.97-0.87-2.97-1.24
			c-2.36-0.69-4.72-1.39-7.05-2.08c-2.33-0.71-4.64-1.46-7.04-1.75c-2.37-0.41-4.73-0.83-7.07-1.23c-2.34-0.42-4.65-0.9-6.99-0.87
			c-4.66-0.14-9.15-0.55-13.71-0.47c-4.63,0.3-9.19,0.61-13.65,0.9c-4.08,0.34-8.41,1.38-12.45,2.01
			c-16.26,3.79-30.11,10.86-41.69,18.08c-11.54,7.34-20.74,15.12-28.04,21.78c-7.24,6.75-12.59,12.44-16.09,16.43
			c-1.03,1.17-1.86,2.14-2.58,3c9.11,6.16,17.1,13.73,23.78,22.17c7.11,8.82,12.86,18.51,17.85,28.44
			c5.02,9.95,9.19,20.22,12.86,30.64c3.68,10.43,6.7,21.04,9.4,31.7l7.61,31.93c2.63,10.66,5.03,21.5,6.24,32.61
			c1.2,11.1,1.1,22.51-1.01,33.65c-2.1,11.14-6.09,21.89-11.48,31.75c-5.35,9.83-11.9,19.11-19.02,27.56
			c-5.82,7.09-12.44,13.49-19.61,19.2c0.79,0.92,1.75,2.03,3.03,3.27C680.27,680.14,686.03,685.21,694.45,689.71"/>
		<path class="st126" d="M798.34,687.26l-0.31,0.35l-0.45,0.43l-0.63,0.6c-0.72,0.75-1.96,1.7-2.99,2.54
			c-2.04,1.52-4.07,2.89-6.14,4.11c-4.17,2.38-8.41,4.3-12.65,5.84c-17.05,5.97-33.73,7.57-48.33,6.38
			c-14.66-1.25-26.99-6.03-35.99-11.5c-8.97-5.65-14.64-11.82-18.11-16.14c-1.23-1.46-2.13-2.77-2.84-3.83
			c-9.39,6.97-19.65,12.77-30.42,17.23c-16.59,6.91-34.25,10.71-52.01,12.1c0.57,3.73,1.83,11.99,3.56,23.06h18.91l-3.2-6.12
			c-0.56-1.07-0.14-2.39,0.93-2.94c0.97-0.5,2.14-0.21,2.77,0.65l0.16,0.21l3.83,5.25c0.67,1.06,1.5,2.02,2.33,2.96h189.62v-51.45
			c-2.08,3.14-4.3,6.15-6.83,8.87L798.34,687.26z"/>
		<path class="st126" d="M643.12,380.92c0.72-1,1.61-2.18,2.68-3.6c3.31-4.33,8.34-10.58,15.57-17.78
			c7.16-7.25,16.48-15.54,28.43-23.42c11.87-7.91,26.7-15.25,44.14-18.97c4.46-0.56,8.77-1.48,13.62-1.75
			c4.47-0.16,9.03-0.33,13.68-0.51c4.7,0.03,9.63,0.57,14.54,0.85c2.48,0.08,4.9,0.51,7.36,0.94c2.45,0.42,4.92,0.83,7.41,1.25
			c2.52,0.3,4.95,1.06,7.41,1.79c2.46,0.71,4.94,1.43,7.43,2.15c0.34,0.08,0.67,0.23,0.99,0.34v-56.55
			c-3.54,0.27-7.07,0.62-10.6,1.05c-8.33,1.28-16.46,2.92-24.27,5.01c-28.42,7.34-53.15,18.51-73.84,30.38
			c-10.37,5.92-19.76,12.03-28.14,18.09c-8.4,6.04-15.96,11.82-22.5,17.4c-7.48,6.32-13.79,12.1-19.03,17.17
			c-5.32,5.72-9.55,10.83-12.77,15.04c5,1.24,10.15,2.77,15.04,4.69C634.67,376.38,639.01,378.46,643.12,380.92"/>
		<path class="st126" d="M420.3,618.3c0.52-1.47,0.99-2.96,1.39-4.5c2.42-10.21,2.97-21.13,3.53-31.96
			c0.8-21.74,0.75-43.75,2.98-65.76c1.1-11,2.71-22.01,5.15-32.89c2.52-10.87,5.9-21.6,10.45-31.91
			c4.54-10.3,10.29-20.17,17.3-29.11c7.07-8.96,15.23-16.75,24.11-23.77c8.87-7,18.67-12.82,28.94-17.55
			c0.18-0.07,0.34-0.13,0.51-0.22c-2.42-8.98-9.07-28.96-23.58-46.3c-6.46-6.31-13.84-12.76-22.44-18.74
			c-1.48-0.99-2.99-1.97-4.53-2.93c-14.53-7.27-32.88-10.83-56.05-7.14c-5.67,0.9-10.89,2.06-15.72,3.44
			c-2.2,1.29-4.39,2.59-6.49,4.1c-0.83,0.57-1.67,1.12-2.52,1.65l-1.15,0.73l-1.28,0.95c-1.72,1.29-3.52,2.48-5.27,3.73
			c-1.89,1.18-3.29,2.49-5.02,3.67c-1.65,1.22-3.37,2.33-4.95,3.72c-6.72,5.04-12.75,11.07-17.65,17.94
			c-3.34,4.63-6.13,9.64-8.36,14.91c-5.72,24.12,0.08,49.29,2.03,60.98c3.9,23.49,32.7,52.57,22.13,80.44
			c-1.72,4.54-3.88,10.03-6.13,16.14c-0.4,9.97-1.46,19.62-2.55,28.78c-1.85,15.53-2.29,30.28-0.73,42.54
			c0.21,1.54,0.41,3.06,0.79,4.51c0.32,1.46,0.6,2.93,1.13,4.28l0.68,2.06l0.17,0.51l0.08,0.26c0.01,0.03,0.01,0.02,0.01,0.03
			l0.46,0.95c0.69,1.43,1.38,2.84,2.05,4.24c0.64,1.56,1.46,2.36,2.14,3.45c0.28,0.37,0.52,0.77,0.78,1.15
			c1.17,0.71,2.4,1.38,3.71,1.99C395.82,626.48,413.05,621.87,420.3,618.3"/>
		<path class="st126" d="M468.12,559.53L468.12,559.53c-1.04,6.66-7.28,11.23-13.94,10.19c-6.66-1.03-11.22-7.27-10.19-13.93
			c1.03-6.66,7.27-11.22,13.93-10.19C464.59,546.64,469.15,552.87,468.12,559.53 M574.11,699.83c21.51-0.76,42.94-4.83,62.61-13.15
			c19.64-8.33,37.18-21.25,50.86-37.58c13.76-16.35,25.18-35.08,29.37-55.83c2.1-10.34,2.4-21.02,1.38-31.66
			c-1.03-10.64-3.23-21.25-5.72-31.82c-4.85-21.43-9.51-42.63-16.81-63.04c-7.16-20.33-17.17-39.95-31.47-55.59
			c-7.05-7.86-15.2-14.57-24.18-19.64c-4.4-2.68-9.12-4.75-13.89-6.61c-4.9-1.7-9.73-2.95-14.93-4.03
			c-1.16-0.22-2.33-0.39-3.49-0.58c-0.64,1.03-0.96,1.57-0.96,1.57c-27.86-1.2-53.42,0.13-70.32,1.5
			c-16.43,4.55-31.99,12.17-45.47,22.62c-8.3,6.47-16.13,13.85-22.64,22.01c-6.55,8.21-11.98,17.34-16.34,27
			c-4.37,9.66-7.64,19.85-10.2,30.24c-2.61,10.39-4.46,21.02-5.82,31.74c-2.73,21.47-3.37,43.25-4.55,65.17
			c-0.36,6.53-0.78,13.08-1.57,19.66c11.86-10.76,30.36-7.28,40.93,4.81c0.93,1.07,0.01,2.54-1.35,2.3
			c-6.97-1.28-12.43-5.84-19.25-7.66c-7.43-1.99-13.92,0.65-20.68,3.29c-0.49,3.57-1.06,7.15-1.88,10.73
			c-0.39,1.68-0.86,3.35-1.4,5.02c4.05-0.87,9.53,2.06,12.8,4.11c4.41,2.76,7.04,6.92,8.09,11.99c0.39,1.92-2.3,3.27-3.29,1.39
			c-2.02-3.8-5.31-6.97-8.65-9.65c-2.84-2.28-7.1-3.41-9.62-5.98c-0.17,0.48-0.31,0.96-0.5,1.43c-0.59,1.38-1.2,2.72-2,4.1
			l-2.07,3.54c-0.36,0.55-0.75,1.07-1.1,1.62c-0.08,0.17-0.16,0.34-0.24,0.5c2.8,1.69,4.99,4.71,6.76,7.23
			c3.35,4.8,5.37,9.76,6.81,15.41c0.37,1.46-1.51,2.67-2.61,1.51c-3.17-3.37-5.62-7.13-7.9-11.14c-1.71-3.04-3.69-5.43-5.85-7.86
			c-3.8,6.09-9.55,12.39-18.2,17.52c6.23,5.51,12,14.37,10,21.26c-0.3,1.03-1.58,1.35-2.35,0.62c-3.3-3.15-4.72-7.97-7.11-11.78
			c-1.56-2.47-3.4-4.7-5.25-6.91c-7.57,4.94-15.9,8.71-24.63,11.15c6.08,6.98,7.18,21.26,5.01,28.36c-0.33,1.09-2.22,1.31-2.42,0
			c-1.35-8.95-0.61-19.72-5.76-27.49c-5.37,1.29-10.85,2.1-16.37,2.34c-2.5,0.14-5.03,0.12-7.55,0.05
			c0.73,6.32,1.53,12.46,0.75,18.9c-0.17,1.41-2.02,1.41-2.2,0c-0.79-6.44,0.02-12.58,0.75-18.9c-14.69-0.55-29.36-4.63-42.03-12.22
			c-7.21-2.88-9.99-5.66-9.99-5.66s-0.1-0.67-0.29-1.81c-1.09-0.93-2.24-1.78-3.28-2.77c-0.96-0.91-1.45-2.15-1.45-3.38
			c0-2.99-0.2-6.3-0.55-9.41c-0.35-3.15-0.88-6.28-1.61-9.28c-0.12-0.49-0.26-0.99-0.4-1.48c-4.22-9.66-10.36-16.91-18.85-11.89
			c-1.73,1.03-3.13,2.13-4.29,3.29c-0.19,0.77-0.35,1.58-0.45,2.49c-0.36,2.96-0.3,6.33-0.81,10.06c-0.26,1.87-0.7,3.89-1.65,5.92
			c-0.37,0.83-0.89,1.65-1.46,2.42c0.42,5.39,0.12,9.62-6.11,10.62c-5.9,0.95-10.64,3.38-13.47,6.8c0,0.01,0,0.02,0,0.02
			c-0.18,0.78-0.14,2.01,0.17,3.37c0.06,0.34,0.15,0.69,0.25,1.04c0.03,0.12,0.13,0.48,0.1,0.4l0.19,0.59
			c0.26,0.84,0.52,1.59,0.78,2.11c0.49,1.21,1.21,2.48,2.01,3.53c1.58,2.19,3.75,3.74,6.26,4.76c2.53,1,5.44,1.38,8.41,1.32
			c2.91-0.06,6.14-0.59,8.76-1.39c1.7-0.52,3.49,0.23,4.36,1.69c3.66,6.2,8.84,12.25,14.26,17.52c5.47,5.36,11.5,10.14,17.92,14.29
			c12.89,8.3,27.31,13.95,42.18,17.34c7.48,1.57,15.03,2.79,22.65,3.45c3.82,0.32,7.66,0.46,11.48,0.59
			c3.85-0.08,7.68,0.1,11.52-0.15c3.84-0.17,7.7-0.27,11.54-0.73c3.84-0.33,7.68-0.71,11.5-1.33c3.83-0.52,7.65-1.12,11.45-1.92
			c3.8-0.71,7.61-1.46,11.37-2.44c7.55-1.71,15.09-3.97,22.42-6.23c7.61-2.49,14.76-4.98,21.95-8.02
			c14.39-5.84,28.24-12.97,41.11-21.6c12.81-8.67,24.55-18.94,34.49-30.76c4.95-5.93,9.45-12.25,13.22-18.99
			c0.72-1.29,1.4-2.62,2.1-3.96c-10.13-7.22-15.92-19.75-13.89-32.89c1.59-10.28,7.65-18.75,15.87-23.78
			c-0.19-0.02-0.38,0-0.58-0.03c-6.66-1.04-11.22-7.27-10.19-13.94c1.03-6.65,7.27-11.22,13.93-10.19
			c6.66,1.03,11.23,7.27,10.19,13.93c-0.36,2.31-1.37,4.34-2.78,6c3.96-0.86,8.14-1.05,12.39-0.39
			c18.57,2.87,31.29,20.26,28.41,38.83c-2.87,18.57-20.26,31.29-38.83,28.42c-3.55-0.55-6.88-1.64-9.93-3.16
			c-0.59,1.27-1.17,2.53-1.82,3.79c-3.66,7.22-8.09,14.03-13.01,20.44c-9.82,12.87-21.93,23.84-34.99,33.28
			c-1.41,1-2.88,1.92-4.32,2.9C536.29,698.93,555.34,700.36,574.11,699.83z"/>
		<path class="st124" d="M340.91,692.54c0.17,1.41,2.02,1.41,2.2,0c0.78-6.45-0.03-12.58-0.75-18.91c-0.23-0.01-0.47,0.01-0.7,0
			C340.93,679.97,340.13,686.09,340.91,692.54"/>
		<path class="st124" d="M372.04,698.73c0.2,1.3,2.08,1.08,2.42,0c2.17-7.09,1.08-21.39-5.02-28.36c-1.06,0.29-2.09,0.62-3.16,0.87
			C371.43,679.01,370.7,689.77,372.04,698.73"/>
		<path class="st123" d="M398.78,656.03C398.78,656.03,398.78,656.03,398.78,656.03c-0.02,0-0.03,0.02-0.04,0.02
			C398.75,656.04,398.77,656.04,398.78,656.03"/>
		<path class="st124" d="M394.07,659.22c1.85,2.21,3.69,4.43,5.24,6.9c2.4,3.82,3.82,8.63,7.12,11.78c0.77,0.72,2.05,0.41,2.35-0.62
			c2.01-6.89-3.76-15.76-10-21.26c-0.01,0.01-0.03,0.02-0.04,0.02C397.23,657.18,395.65,658.2,394.07,659.22"/>
		<path class="st124" d="M419.78,633.36c-0.02-0.02-0.05-0.03-0.07-0.05c-1.04,1.58-2.08,3.16-3.18,4.68
			c0.16,0.17,0.31,0.35,0.46,0.51C418.08,636.76,418.99,635.04,419.78,633.36"/>
		<path class="st124" d="M422.84,646.37c2.28,4.01,4.73,7.77,7.9,11.14c1.09,1.15,2.98-0.05,2.61-1.51
			c-1.44-5.64-3.45-10.61-6.81-15.41c-1.77-2.52-3.96-5.54-6.76-7.23c-0.78,1.69-1.7,3.41-2.79,5.15
			C419.15,640.93,421.13,643.33,422.84,646.37"/>
		<path class="st124" d="M435.31,628.14c3.34,2.67,6.63,5.85,8.65,9.65c0.99,1.88,3.68,0.53,3.29-1.39
			c-1.05-5.07-3.69-9.23-8.09-11.99c-3.26-2.05-8.75-4.99-12.8-4.11c-0.2,0.62-0.43,1.25-0.67,1.87
			C428.21,624.72,432.47,625.86,435.31,628.14"/>
		<path class="st124" d="M450.3,601.25c6.82,1.82,12.28,6.38,19.26,7.66c1.35,0.25,2.27-1.23,1.33-2.3
			c-10.56-12.09-29.06-15.56-40.92-4.81c-0.11,0.91-0.23,1.83-0.34,2.74C436.39,601.89,442.88,599.26,450.3,601.25"/>
		<path class="st127" d="M620.76,609.37c2.87-18.58-9.85-35.96-28.41-38.84c-4.25-0.65-8.43-0.46-12.39,0.4
			c-2.53,2.99-6.44,4.66-10.57,4.23c-8.22,5.04-14.27,13.51-15.87,23.79c-2.03,13.14,3.76,25.66,13.89,32.89
			c2.44-4.75,4.55-9.69,6.03-14.66c-0.99-0.43-1.94-0.91-2.89-1.37c-1.33-0.82-2.62-1.69-3.75-2.62c-2.29-1.86-4.05-3.94-5.4-5.78
			c-1.32-1.87-2.24-3.53-2.79-4.74c-0.3-0.58-0.48-1.11-0.63-1.45c-0.11-0.33-0.18-0.51-0.18-0.51c-0.34-0.94,0.14-1.97,1.08-2.32
			c0.73-0.27,1.53-0.04,1.99,0.53l0.05,0.06c0,0,1.72,2.05,4.63,4.81c0.75,0.65,1.52,1.38,2.4,2.07c0.84,0.75,1.82,1.36,2.78,2.07
			c0.97,0.69,2.05,1.24,3.11,1.82c1.11,0.48,2.18,1.12,3.35,1.39l1.72,0.56l1.75,0.31c1.15,0.31,2.33,0.21,3.47,0.33
			c1.13,0.11,2.24-0.17,3.32-0.18c1.08,0.01,2.07-0.37,3.03-0.51c0.94-0.22,1.86-0.29,2.61-0.6c0.78-0.24,1.46-0.46,2.02-0.63
			c1.16-0.32,1.82-0.5,1.82-0.5l0.27-0.06c0.95-0.26,1.92,0.3,2.19,1.25c0.2,0.74-0.1,1.49-0.68,1.91c0,0-0.6,0.44-1.67,1.22
			c-0.55,0.37-1.22,0.81-1.99,1.33c-0.76,0.56-1.76,0.93-2.83,1.4c-1.09,0.43-2.21,1.06-3.59,1.27c-1.34,0.26-2.73,0.75-4.26,0.74
			c-1.51,0-3.11,0.24-4.69-0.12c-0.65-0.08-1.3-0.2-1.94-0.33c-1.37,5.64-3.35,10.95-5.75,16.07c3.05,1.52,6.38,2.61,9.93,3.16
			C600.5,640.66,617.89,627.94,620.76,609.37"/>
		<path class="st124" d="M574.23,614.51c0.29-1.17,1.49-1.89,2.66-1.59c1.13,0.28,1.83,1.41,1.61,2.54c-0.2,1.06-0.5,2.07-0.75,3.09
			c0.65,0.13,1.29,0.24,1.95,0.33c1.58,0.36,3.18,0.12,4.69,0.12c1.53,0.01,2.92-0.49,4.26-0.74c1.37-0.21,2.49-0.84,3.59-1.27
			c1.07-0.47,2.07-0.84,2.83-1.4c0.77-0.52,1.45-0.96,1.99-1.33c1.07-0.77,1.67-1.22,1.67-1.22c0.58-0.43,0.88-1.18,0.68-1.92
			c-0.26-0.94-1.23-1.51-2.19-1.25l-0.26,0.07c0,0-0.66,0.18-1.83,0.5c-0.56,0.17-1.23,0.39-2.02,0.63
			c-0.75,0.31-1.67,0.38-2.61,0.6c-0.96,0.14-1.95,0.52-3.03,0.51c-1.08,0.01-2.2,0.29-3.34,0.18c-1.13-0.13-2.3-0.02-3.46-0.33
			l-1.76-0.32l-1.71-0.56c-1.17-0.28-2.24-0.91-3.36-1.38c-1.05-0.59-2.14-1.14-3.1-1.83c-0.96-0.7-1.95-1.32-2.78-2.07
			c-0.88-0.67-1.65-1.41-2.4-2.07c-2.92-2.76-4.64-4.81-4.64-4.81l-0.05-0.06c-0.47-0.56-1.27-0.8-2-0.53
			c-0.94,0.34-1.42,1.38-1.08,2.32c0,0,0.07,0.18,0.18,0.5c0.15,0.35,0.34,0.88,0.63,1.46c0.55,1.22,1.46,2.87,2.79,4.74
			c1.35,1.84,3.11,3.91,5.4,5.78c1.13,0.93,2.42,1.8,3.75,2.62c0.95,0.46,1.9,0.94,2.89,1.36c0.25-0.82,0.54-1.64,0.75-2.47
			L574.23,614.51z"/>
		<path class="st124" d="M411.12,628.6c-4.1,0.27-10.2,0.39-17.65-0.75c-3.75-0.49-7.73-1.6-11.91-3.01
			c-4.03-1.73-8.37-3.69-12.07-6.96c-2.06-1.37-3.57-3.47-5.4-5.29c-0.53-0.61-0.96-1.26-1.38-1.92
			c-29.14-17.58-16.12-62.59-5.02-92.76c0.27-6.88,0.25-13.91-0.32-21.05c-0.86-8.79-2.71-17.49-4.8-26.13
			c-2.07-8.64-4.64-17.17-7.89-25.47c-7.34-16.27-11.5-34.12-11.36-51.67c0.07-8.74,1.13-17.35,3.5-25.51
			c0.78-2.64,1.76-5.2,2.83-7.72c5.05-21.31,19.08-41.78,52.71-51.4c1.25-0.73,2.49-1.44,3.73-2.17c3.59-1.62,7.13-3.48,10.9-4.52
			c7.46-2.35,15.26-2.95,22.69-2.16c7.45,0.75,14.53,2.79,21.06,5.49c4.76,2.04,9.21,4.46,13.39,7.05
			c11.1,5.57,19.95,13.29,26.97,21.67c1.69,1.66,3.37,3.31,4.93,4.93c7.53,7.84,13.49,15.26,18.29,21.45
			c4.74,6.25,8.29,11.3,10.61,14.79c0.19,0.28,0.31,0.47,0.49,0.72c1.56-0.56,3.1-1.16,4.68-1.68c-0.29-0.52-0.55-1.03-0.9-1.64
			c-2.09-3.77-5.26-9.23-9.83-15.85c-4.49-6.66-10.39-14.49-18.01-22.77c-7.53-8.35-16.97-17.1-28.75-24.68
			c-5.95-3.69-12.43-7.12-19.5-9.9c-7.12-2.65-14.8-4.58-22.86-5.44c-8.07-1-16.48-0.27-24.9,1.16c-8.47,1.34-17.1,3.92-25.05,8.07
			c-1.01,0.5-2,1.02-2.99,1.56c-0.56,0.32-0.87,0.45-1.61,0.91l-1.37,0.85c-1.83,1.14-3.58,2.37-5.39,3.54
			c-3.55,2.53-7.27,5.57-10.59,8.64c-6.75,6.14-12.82,13.27-18.25,20.92c-10.88,15.38-16.33,35.19-14.65,53.96
			c1.51,18.82,7.51,36.24,10.42,54.06c1.92,8.79,4.7,17.16,7.23,25.4c2.5,8.24,4.56,16.44,5.73,24.54
			c2.12,16.38,1.09,32.56-0.9,47.95c-1.88,15.32-6.34,30.07-4.13,44.91c0.23,1.84,0.51,3.64,1.03,5.41
			c0.45,1.78,0.85,3.53,1.54,5.21l0.93,2.52l0.24,0.62l0.11,0.31c-0.12-0.27,0.24,0.53,0.24,0.5l0.06,0.13l0.56,1.06
			c0.74,1.41,1.46,2.8,2.19,4.17c0.57,1.32,1.78,2.85,2.8,4.26c1.06,1.38,2.03,2.88,3.17,4.08c2.4,2.24,4.49,4.68,7.11,6.31
			c4.85,3.83,10.29,5.78,15.14,7.46c4.97,1.36,9.61,2.1,13.78,2.32c7.73,0.42,13.73-0.38,18.01-1.09c1.54-1.84,2.97-3.77,4.31-5.74
			C414.01,628.39,412.76,628.5,411.12,628.6"/>
		<path class="st124" d="M365.66,327.52c1.58-1.39,3.3-2.5,4.95-3.72c1.73-1.18,3.13-2.48,5.02-3.67c1.76-1.25,3.55-2.45,5.27-3.73
			l1.29-0.95l1.15-0.73c0.85-0.53,1.7-1.08,2.53-1.65c2.1-1.51,4.29-2.81,6.49-4.09c-33.63,9.62-47.66,30.09-52.71,51.4
			c2.23-5.27,5.02-10.28,8.36-14.91C352.91,338.6,358.94,332.56,365.66,327.52"/>
		<path class="st124" d="M359.79,606.08c-0.68-1.4-1.36-2.81-2.05-4.24l-0.46-0.96c0.08,0.18-0.18-0.37-0.12-0.26l0.07,0.14
			l0.05,0.12c-0.01-0.01,0,0-0.01-0.03l-0.08-0.26l-0.17-0.51l-0.68-2.06c-0.54-1.35-0.81-2.82-1.13-4.28
			c-0.38-1.45-0.58-2.97-0.79-4.51c-1.56-12.26-1.12-27,0.73-42.54c1.09-9.16,2.14-18.81,2.55-28.77
			c-11.09,30.17-24.13,75.17,5.02,92.76c-0.26-0.39-0.49-0.78-0.78-1.16C361.24,608.44,360.42,607.64,359.79,606.08"/>
		<path class="st123" d="M491.1,334.33c-7.01-8.38-15.86-16.11-26.97-21.67c1.54,0.96,3.06,1.93,4.53,2.93
			C477.26,321.57,484.65,328.03,491.1,334.33"/>
		<path class="st123" d="M357.15,600.63c-0.06-0.12,0.2,0.43,0.13,0.26l-0.07-0.13L357.15,600.63z"/>
		<path class="st124" d="M797.95,319.73c-2.46-0.72-4.89-1.49-7.41-1.79c-2.49-0.42-4.96-0.84-7.41-1.25
			c-2.46-0.43-4.88-0.86-7.36-0.94c-4.91-0.28-9.84-0.83-14.55-0.85c-4.64,0.17-9.2,0.34-13.67,0.51c-4.85,0.27-9.15,1.2-13.62,1.75
			c-17.44,3.72-32.27,11.05-44.14,18.97c-11.94,7.88-21.27,16.17-28.43,23.42c-7.22,7.19-12.25,13.45-15.57,17.78
			c-1.08,1.41-1.96,2.59-2.68,3.59c0.86,0.51,1.72,1.01,2.56,1.57c0.47,0.31,0.9,0.66,1.36,0.98c0.72-0.86,1.54-1.82,2.58-3
			c3.5-3.98,8.85-9.69,16.09-16.43c7.3-6.67,16.5-14.43,28.04-21.78c11.58-7.21,25.43-14.3,41.69-18.09
			c4.05-0.62,8.37-1.66,12.45-2.01c4.46-0.29,9.02-0.59,13.65-0.9c4.56-0.08,9.05,0.34,13.71,0.47c2.33-0.02,4.65,0.44,6.99,0.87
			c2.35,0.4,4.7,0.81,7.07,1.23c2.4,0.3,4.7,1.05,7.04,1.75c2.33,0.69,4.69,1.38,7.05,2.08c1,0.36,1.97,0.82,2.97,1.24v-6.68
			c-0.33-0.11-0.65-0.26-1-0.34C802.89,321.15,800.41,320.44,797.95,319.73"/>
		<path class="st124" d="M793,679.41l-1.15,1.14l-0.29,0.28c0.17-0.16-0.14,0.11-0.19,0.15l-0.68,0.54c-0.96,0.82-1.63,1.15-2.4,1.7
			c-1.72,1.06-3.54,2.08-5.41,2.97c-3.72,1.87-7.57,3.44-11.4,4.87c-15.37,5.72-30.74,7.84-44,7.12
			c-13.34-0.56-24.61-4.02-33.02-8.48c-8.42-4.5-14.19-9.57-17.74-13.33c-1.28-1.24-2.25-2.35-3.02-3.27
			c-1.25,1-2.51,1.98-3.79,2.94c0.71,1.06,1.6,2.37,2.84,3.83c3.48,4.32,9.13,10.49,18.11,16.14c9,5.47,21.33,10.25,35.99,11.5
			c14.61,1.19,31.27-0.41,48.32-6.38c4.26-1.54,8.49-3.46,12.66-5.84c2.08-1.22,4.12-2.58,6.15-4.11c1.03-0.84,2.27-1.79,3-2.54
			l0.62-0.6l0.46-0.43l0.3-0.35l1.2-1.4c2.54-2.72,4.76-5.74,6.83-8.87v-15.14C802.88,668.67,798.36,674.69,793,679.41"/>
		<path class="st124" d="M613.78,369.42c1.18-1.31,2.56-2.81,4.16-4.5c2.72-2.88,6.09-6.32,10.06-10.15
			c20.47-22.01,57.07-52.95,115.33-75.28c16.85-6.45,34.45-10.6,52.44-12.78c3.5-0.54,7.03-1.02,10.6-1.42v-6.55
			c-12.68,1.16-24.95,3.17-36.6,6.03c-29.27,7.22-54.81,18.51-75.77,31.02c-21.11,12.34-37.96,25.5-51.05,37.08
			c-13.14,11.56-22.51,21.66-28.67,28.73c-2.43,2.79-4.36,5.09-5.81,6.89c1.76,0.3,3.52,0.56,5.26,0.91
			C613.76,369.41,613.77,369.41,613.78,369.42"/>
		<path class="st124" d="M669.53,320.19c8.37-6.07,17.76-12.18,28.13-18.1c20.7-11.86,45.43-23.04,73.85-30.38
			c7.81-2.08,15.93-3.72,24.27-5c-17.99,2.18-35.59,6.32-52.44,12.77c-58.27,22.33-94.87,53.26-115.34,75.27
			c5.25-5.06,11.55-10.84,19.03-17.16C653.57,332.01,661.13,326.23,669.53,320.19"/>
		<path class="st124" d="M567.15,701.38c-21.04-1.69-46.46-3.32-46.46-3.32s-0.55,0.71-1.81,1.95c15.74,3.7,31.79,5.69,47.95,5.98
			c-0.32-1.19-0.49-1.83-0.49-1.83C566.07,703.11,566.44,702.09,567.15,701.38"/>
		<path class="st124" d="M532.3,378.81c0.5,1.1,0.02,2.4-1.08,2.91c-1.01,0.47-2.2,0.1-2.78-0.83c0,0-1.03-1.65-3.02-4.65
			c-3.64,1.33-7.23,2.76-10.74,4.4c0.82,3.02,1.16,4.84,1.16,4.84s7.85-1.07,20.72-2.12c3.92-1.09,7.87-2.05,11.86-2.78
			c19.56-3.52,39.96-3.6,59.41-0.3c1.21-1.94,3.64-5.61,7.39-10.48c-0.48-0.12-0.97-0.27-1.44-0.39c-3.49,3.88-5.17,6.01-5.17,6.01
			c-0.75,0.96-2.13,1.12-3.08,0.37c-0.93-0.73-1.1-2.06-0.42-3.01l0.03-0.04c0,0,1.12-1.52,3.34-4.26
			c-20.73-3.46-41.78-2.86-62.18,1.62c-5.46,1.22-10.87,2.69-16.18,4.44c1.44,2.68,2.18,4.24,2.18,4.24L532.3,378.81z"/>
		<path class="st124" d="M420.02,632.86c4.32-9.42,4.39-17.11,4.39-17.11s-1.37,1.21-4.11,2.55c-0.33,0.95-0.67,1.89-1.06,2.78
			c-0.51,1.12-1.09,2.26-1.68,3.22l-2.17,3.48c-0.11,0.17-0.26,0.33-0.37,0.51c0.25-0.03,0.58-0.06,0.78-0.09
			c1.02-0.13,1.54-0.2,1.54-0.2l0.18-0.03c1.2-0.15,2.3,0.69,2.46,1.89c0.14,1.09-0.54,2.1-1.57,2.39c0,0-0.24,0.08-0.62,0.18
			c0.67,0.21,1.3,0.53,1.91,0.89C419.82,633.16,419.91,633.01,420.02,632.86"/>
		<path class="st124" d="M234.98,657.35c0.19-0.72,0.56-1.28,1.51-2.13c1.97-1.65,5.16-3.47,7.93-5.59c2.86-2.12,5.53-4.48,8-7.16
			c0.68-0.74,1.05-1.14,1.79-2.03c0.13-0.17,0.23-0.34,0.36-0.51c-0.49-6.43-1.97-14.53,4.36-20.9c0.44-1.74,1.11-3.1,2.1-3.92
			c1.43-1.28,3.89-2.01,6.85-2.21c2.69-0.25,4.78,0.31,6.73,1.64c3.58,2.49,5.96,7.69,7.46,13.08c4.24,9.71,6.53,21.83,7.28,26.32
			c3.24,2.75,6.64,5.3,10.27,7.47c10.6,4.23,30.73,8.67,65.7,4.87c11.58-1.26,20.86-3.99,28.35-7.55c-1.19-1.41-2.37-2.83-3.47-4.32
			c-1.23-1.65,1.06-3.26,2.55-2.55c1.89,0.89,3.98,2.34,6.03,4.14c4.37-3.28,8.45-6.94,12.1-11.01c2.02-2.23,3.88-4.58,5.65-7.02
			c-0.65-0.72-1.32-1.45-2-2.2c-0.59-0.65-0.7-1.64-0.4-2.43c-0.71,0.17-1.45,0.33-2.33,0.49c-0.33,0.06-0.75,0.12-1.1,0.18
			c-1.68,1.98-3.45,3.89-5.29,5.72c-15.05,14.59-35.47,22.48-56.04,23.58c-19.94,1.15-40.64-4.67-55.66-17.75
			c0.03,0.76,0.09,1.5,0.1,2.28l-1.45-3.37c0.43,0.39,0.91,0.71,1.35,1.09c-0.12-2.8-0.33-5.51-0.68-8.26
			c-0.44-3.47-1.08-6.94-1.98-10.39c-0.92-3.45-2.11-6.92-3.86-10.28c-1.77-3.33-4.17-6.69-7.77-9.15
			c-3.55-2.49-8.37-3.44-12.3-2.93c-3.61,0.35-8.04,1.23-11.62,4.47c-1.76,1.6-3.05,3.71-3.78,5.75c-0.74,2.04-1.05,4.01-1.25,5.86
			c-0.36,3.68-0.25,7-0.61,9.88c-0.17,1.44-0.48,2.7-0.94,3.71c-0.21,0.52-0.49,0.93-0.78,1.32c-0.31,0.4-1.05,1.25-1.5,1.75
			c-2.02,2.24-4.33,4.37-6.81,6.24c-2.49,1.98-5.18,3.42-8.31,6.07c-1.54,1.32-3.27,3.56-3.79,6.13c-0.51,2.5-0.2,4.67,0.22,6.54
			c0.1,0.49,0.22,0.95,0.34,1.4l0.23,0.81l0.2,0.59c0.24,0.76,0.52,1.58,0.95,2.58c0.78,1.87,1.72,3.52,2.93,5.13
			c1.5,2.07,3.48,3.79,5.64,5.17C230.88,669.9,230.71,662.5,234.98,657.35"/>
		<path class="st124" d="M293.81,647.86c-0.01-0.79-0.07-1.52-0.1-2.29c-0.44-0.38-0.92-0.7-1.35-1.09L293.81,647.86z"/>
		<path class="st124" d="M259.88,678.27c0.51,0.85,1.07,1.63,1.6,2.45c0.91-0.21,1.82-0.46,2.76-0.75L259.88,678.27z"/>
		<path class="st124" d="M485.21,398.4c-8.87,7.04-17.02,14.81-24.11,23.78c-7.02,8.93-12.76,18.8-17.3,29.1
			c-4.55,10.31-7.94,21.05-10.45,31.91c-2.45,10.88-4.05,21.89-5.15,32.89c-2.24,22.01-2.19,44.02-2.99,65.76
			c-0.56,10.83-1.1,21.74-3.53,31.96c-0.4,1.54-0.87,3.03-1.39,4.5c2.74-1.35,4.11-2.55,4.11-2.55s-0.06,7.69-4.39,17.11
			c0.36-0.55,0.75-1.06,1.1-1.62l2.07-3.54c0.81-1.39,1.42-2.72,2-4.1c0.19-0.47,0.32-0.95,0.5-1.43c-0.11-0.1-0.24-0.17-0.34-0.28
			c-0.44-0.51-0.26-1.27,0.4-1.48c0.19-0.06,0.4-0.06,0.6-0.11c0.53-1.67,1.01-3.34,1.39-5.02c0.82-3.59,1.4-7.16,1.89-10.73
			c-0.52,0.2-1.03,0.4-1.56,0.61c-0.54,0.21-0.81-0.51-0.5-0.86c0.76-0.9,1.56-1.72,2.4-2.48c0.78-6.58,1.21-13.13,1.57-19.66
			c1.18-21.92,1.82-43.7,4.55-65.17c1.35-10.72,3.21-21.35,5.82-31.74c2.55-10.39,5.82-20.59,10.19-30.25
			c4.36-9.66,9.78-18.79,16.34-27c6.52-8.16,14.34-15.54,22.64-22.01c13.49-10.45,29.05-18.08,45.47-22.62
			c-12.86,1.04-20.71,2.12-20.71,2.12s-0.35-1.82-1.17-4.84c-0.17,0.08-0.34,0.14-0.5,0.22C503.9,385.58,494.09,391.39,485.21,398.4
			"/>
		<path class="st124" d="M341.66,673.63c0.09-0.86,0.2-1.7,0.28-2.58c0.01-0.08,0.12-0.08,0.12,0c0.1,0.86,0.2,1.71,0.3,2.58
			c2.52,0.07,5.05,0.09,7.55-0.05c5.52-0.24,11-1.06,16.37-2.35c-0.88-1.32-1.91-2.57-3.18-3.69c-0.43-0.38,0.02-1.04,0.53-0.92
			c2.3,0.56,4.22,1.92,5.82,3.75c8.73-2.44,17.06-6.22,24.63-11.14c-0.14-0.16-0.28-0.33-0.41-0.49
			c-7.49,3.56-16.76,6.29-28.35,7.55c-34.96,3.81-55.11-0.64-65.7-4.87C312.29,669.01,326.96,673.09,341.66,673.63z"/>
		<path class="st128" d="M341.66,673.63c0.09-0.86,0.2-1.7,0.28-2.58c0.01-0.08,0.12-0.08,0.12,0c0.1,0.86,0.2,1.71,0.3,2.58
			c2.52,0.07,5.05,0.09,7.55-0.05c5.52-0.24,11-1.06,16.37-2.35c-0.88-1.32-1.91-2.57-3.18-3.69c-0.43-0.38,0.02-1.04,0.53-0.92
			c2.3,0.56,4.22,1.92,5.82,3.75c8.73-2.44,17.06-6.22,24.63-11.14c-0.14-0.16-0.28-0.33-0.41-0.49
			c-7.49,3.56-16.76,6.29-28.35,7.55c-34.96,3.81-55.11-0.64-65.7-4.87C312.29,669.01,326.96,673.09,341.66,673.63z"/>
		<path class="st124" d="M520.7,698.06c0,0,25.41,1.64,46.46,3.32c0.36-0.36,0.77-0.66,1.3-0.79c1.2-0.31,2.4,0.2,3.09,1.14
			c6.04,0.5,11.5,1,15.6,1.45c0,0,0.12,0.77,0.33,2.19c17.76-1.39,35.42-5.19,52.02-12.11c10.76-4.46,21.02-10.26,30.41-17.23
			c-0.32-0.49-0.63-0.94-0.89-1.31c-0.8-1.19-1.21-1.8-1.21-1.8c-0.68-1-0.42-2.36,0.59-3.04c0.93-0.63,2.17-0.44,2.89,0.39
			l0.11,0.12c0,0,0.45,0.53,1.33,1.56c0.28,0.32,0.61,0.71,0.97,1.13c7.17-5.72,13.78-12.11,19.61-19.2
			c7.12-8.45,13.66-17.72,19.02-27.56c5.38-9.85,9.38-20.61,11.48-31.75c2.11-11.13,2.21-22.55,1.01-33.65
			c-1.21-11.11-3.61-21.95-6.24-32.61l-7.61-31.93c-2.71-10.66-5.72-21.28-9.4-31.7c-3.67-10.42-7.86-20.69-12.86-30.64
			c-5-9.94-10.74-19.63-17.85-28.44c-6.68-8.44-14.67-16.01-23.78-22.17c-1.73,2.06-2.62,3.21-2.62,3.21
			c-0.72,0.97-2.1,1.16-3.07,0.43c-0.92-0.71-1.13-1.99-0.51-2.95l0.02-0.03c0,0,0.76-1.14,2.26-3.2
			c-4.11-2.45-8.45-4.53-12.85-6.43c-4.89-1.91-10.04-3.45-15.05-4.68c-3.74,4.87-6.18,8.54-7.39,10.48
			c1.16,0.2,2.33,0.36,3.49,0.58c5.21,1.08,10.04,2.33,14.93,4.03c4.77,1.86,9.49,3.93,13.89,6.61
			c8.98,5.08,17.13,11.78,24.18,19.64c14.3,15.64,24.31,35.25,31.47,55.59c7.3,20.41,11.97,41.61,16.81,63.04
			c2.49,10.58,4.69,21.18,5.72,31.82c1.02,10.64,0.73,21.32-1.38,31.66c-4.2,20.75-15.61,39.48-29.37,55.83
			c-13.68,16.33-31.23,29.25-50.86,37.58c-19.66,8.32-41.09,12.39-62.61,13.15c-18.77,0.54-37.83-0.89-56.25-4.79
			c-1.7,1.15-3.38,2.33-5.13,3.43c2.05,0.55,4.09,1.07,6.16,1.56C520.15,698.77,520.7,698.06,520.7,698.06"/>
		<path class="st124" d="M509.9,693.18l-0.11-0.02c-1.14-0.29-2.3,0.38-2.64,1.52c-0.33,1.16,0.34,2.37,1.51,2.7
			c1.35,0.39,2.72,0.73,4.07,1.09c1.73-1.11,3.42-2.28,5.13-3.43C515.19,694.47,512.54,693.85,509.9,693.18"/>
		<path class="st124" d="M284.07,638.39c0.35,3.12,0.55,6.42,0.55,9.41c0,1.23,0.48,2.47,1.45,3.38c1.04,0.99,2.18,1.85,3.28,2.77
			c-0.75-4.5-3.04-16.61-7.29-26.33c0.14,0.5,0.28,1,0.4,1.49C283.19,632.13,283.73,635.24,284.07,638.39"/>
		<path class="st124" d="M253.31,681.76c2.81-0.1,5.44-0.4,8.17-1.04c-0.53-0.82-1.08-1.6-1.59-2.45l4.35,1.7
			c-0.93,0.28-1.85,0.53-2.75,0.75c4.09,6.28,8.67,11.71,13.73,16.93c5.69,5.85,12.05,10.99,18.73,15.66
			c6.68,4.68,13.78,8.77,21.22,12.16c7.44,3.38,15.19,6.06,23.07,8.22c7.9,2.1,15.99,3.41,24.1,4.19
			c8.11,0.71,16.26,1.03,24.36,0.61c4.05-0.24,8.11-0.41,12.12-0.94c4.02-0.41,8.04-0.87,12.02-1.58c4-0.6,7.97-1.28,11.9-2.17
			c3.95-0.8,7.89-1.64,11.77-2.71c3.27-0.8,6.49-1.71,9.7-2.65h-71.37h71.37c4.49-1.31,8.94-2.69,13.45-4.15
			c7.38-2.52,15.13-5.36,22.46-8.58c7.41-3.11,14.58-6.81,21.64-10.66c3.73-2.08,7.39-4.29,10.99-6.59
			c-1.36-0.36-2.73-0.7-4.08-1.08c-1.16-0.33-1.83-1.55-1.51-2.71c0.33-1.15,1.49-1.81,2.65-1.52l0.1,0.02
			c2.64,0.67,5.3,1.29,7.96,1.85c1.44-0.98,2.91-1.89,4.32-2.9c13.06-9.44,25.16-20.42,34.99-33.29c4.92-6.4,9.36-13.21,13.01-20.43
			c0.64-1.25,1.22-2.52,1.81-3.78c-1.62-0.8-3.14-1.75-4.59-2.78c-0.68,1.33-1.38,2.66-2.1,3.95c-3.76,6.74-8.26,13.05-13.21,18.99
			c-9.94,11.83-21.69,22.09-34.49,30.77c-12.87,8.62-26.71,15.76-41.11,21.6c-7.19,3.04-14.34,5.53-21.95,8.02
			c-7.34,2.26-14.86,4.52-22.42,6.23c-3.76,0.98-7.57,1.73-11.39,2.44c-3.79,0.81-7.61,1.4-11.45,1.92
			c-3.81,0.63-7.66,1.01-11.5,1.34c-3.83,0.45-7.68,0.55-11.52,0.72c-3.85,0.25-7.68,0.07-11.52,0.15
			c-3.83-0.12-7.67-0.27-11.48-0.59c-7.64-0.67-15.18-1.88-22.66-3.46c-14.87-3.38-29.3-9.03-42.18-17.33
			c-6.43-4.15-12.46-8.93-17.92-14.29c-5.43-5.28-10.6-11.32-14.27-17.52c-0.86-1.47-2.65-2.21-4.35-1.69
			c-2.62,0.81-5.85,1.34-8.76,1.39c-2.97,0.05-5.87-0.32-8.41-1.32c-2.52-1.02-4.69-2.58-6.26-4.76c-0.8-1.05-1.51-2.32-2.01-3.53
			c-0.25-0.52-0.52-1.28-0.78-2.11l-0.19-0.59c0.03,0.08-0.07-0.29-0.1-0.4c-0.1-0.35-0.19-0.7-0.25-1.03
			c-0.3-1.36-0.35-2.59-0.17-3.37c0-0.01,0-0.01,0.01-0.02c-4.27,5.15-4.1,12.55,3.28,20.62c1.23,0.78,2.5,1.48,3.82,1.99
			C245.77,681.39,249.62,681.84,253.31,681.76"/>
		<path class="st124" d="M341.94,671.06c-0.09,0.87-0.19,1.72-0.28,2.58c0.23,0.01,0.46-0.01,0.7,0c-0.1-0.86-0.2-1.71-0.3-2.58
			C342.06,670.98,341.95,670.98,341.94,671.06"/>
		<path class="st124" d="M363.63,666.62c-0.5-0.13-0.97,0.54-0.53,0.92c1.26,1.12,2.3,2.37,3.18,3.7c1.06-0.26,2.11-0.58,3.16-0.87
			C367.85,668.54,365.94,667.18,363.63,666.62"/>
		<path class="st124" d="M398.78,656.02c-2.05-1.8-4.14-3.25-6.03-4.15c-1.48-0.7-3.77,0.9-2.55,2.55c1.11,1.48,2.29,2.91,3.48,4.32
			c1.79-0.85,3.48-1.75,5.07-2.69C398.75,656.04,398.76,656.03,398.78,656.02"/>
		<path class="st124" d="M398.74,656.05c-1.59,0.94-3.28,1.84-5.07,2.69c0.13,0.16,0.26,0.33,0.4,0.48
			C395.65,658.2,397.23,657.18,398.74,656.05"/>
		<path class="st124" d="M417.8,632.42c-0.29,0.08-0.62,0.17-1.1,0.31c-0.66,0.17-1.56,0.4-2.58,0.62c-0.29,0.8-0.19,1.79,0.4,2.44
			c0.69,0.75,1.35,1.48,2.01,2.2c1.11-1.52,2.14-3.1,3.18-4.69C419.09,632.95,418.46,632.64,417.8,632.42z"/>
		<path class="st129" d="M417.8,632.42c-0.29,0.08-0.62,0.17-1.1,0.31c-0.66,0.17-1.56,0.4-2.58,0.62c-0.29,0.8-0.19,1.79,0.4,2.44
			c0.69,0.75,1.35,1.48,2.01,2.2c1.11-1.52,2.14-3.1,3.18-4.69C419.09,632.95,418.46,632.64,417.8,632.42z"/>
		<path class="st124" d="M425.35,621.89c0.1,0.11,0.24,0.18,0.34,0.28c0.24-0.62,0.46-1.25,0.67-1.87c-0.2,0.04-0.42,0.05-0.61,0.11
			C425.09,620.62,424.91,621.37,425.35,621.89"/>
		<path class="st124" d="M427.57,604.29c-0.3,0.36-0.02,1.07,0.51,0.86c0.52-0.21,1.03-0.4,1.56-0.61c0.12-0.91,0.24-1.82,0.34-2.74
			C429.15,602.57,428.34,603.39,427.57,604.29"/>
		<path class="st124" d="M574.95,617.79c-0.53-0.16-1.01-0.38-1.52-0.6c-1.48,4.97-3.58,9.91-6.02,14.66
			c1.45,1.03,2.98,1.98,4.59,2.78c2.39-5.13,4.38-10.42,5.75-16.07C576.8,618.38,575.86,618.15,574.95,617.79"/>
		<path class="st124" d="M577.74,618.56c0.26-1.03,0.55-2.03,0.76-3.09c0.22-1.13-0.49-2.26-1.62-2.54
			c-1.18-0.3-2.36,0.41-2.66,1.59l-0.05,0.2c-0.21,0.83-0.5,1.65-0.74,2.47c0.5,0.22,0.99,0.45,1.51,0.61
			C575.86,618.15,576.8,618.38,577.74,618.56"/>
		<path class="st124" d="M528.44,380.89c0.58,0.93,1.76,1.3,2.78,0.83c1.1-0.5,1.59-1.81,1.08-2.91l-0.01-0.02
			c0,0-0.74-1.57-2.18-4.24c-1.57,0.52-3.13,1.12-4.68,1.69C527.4,379.24,528.44,380.89,528.44,380.89"/>
		<path class="st124" d="M414.12,633.36c0.28-0.77,0.96-1.37,1.95-1.28c0.59,0.05,1.17,0.17,1.73,0.34
			c0.37-0.11,0.62-0.18,0.62-0.18c1.03-0.28,1.72-1.29,1.57-2.39c-0.16-1.2-1.26-2.04-2.46-1.89l-0.18,0.03c0,0-0.52,0.07-1.54,0.2
			c-0.21,0.03-0.53,0.06-0.78,0.09c-1.34,1.98-2.76,3.9-4.31,5.74c0.34-0.06,0.77-0.12,1.09-0.18
			C412.68,633.69,413.41,633.53,414.12,633.36"/>
		<path class="st124" d="M417.8,632.42c-0.56-0.17-1.13-0.3-1.73-0.34c-0.99-0.08-1.66,0.5-1.95,1.28c1.02-0.23,1.92-0.45,2.58-0.62
			C417.18,632.6,417.51,632.5,417.8,632.42"/>
		<path class="st124" d="M643.12,380.92c-1.5,2.06-2.26,3.21-2.26,3.21l-0.02,0.02c-0.62,0.96-0.4,2.24,0.51,2.95
			c0.97,0.73,2.35,0.54,3.07-0.42c0,0,0.89-1.16,2.62-3.22c-0.47-0.32-0.89-0.67-1.36-0.98
			C644.84,381.93,643.98,381.43,643.12,380.92"/>
		<path class="st124" d="M672.72,671.97c-0.88-1.03-1.33-1.56-1.33-1.56l-0.11-0.12c-0.71-0.84-1.95-1.02-2.89-0.39
			c-1,0.68-1.27,2.04-0.59,3.04c0,0,0.41,0.61,1.21,1.8c0.26,0.37,0.56,0.82,0.89,1.31c1.28-0.96,2.54-1.94,3.79-2.94
			C673.34,672.68,673,672.29,672.72,671.97"/>
		<path class="st124" d="M605.11,372.79c-0.68,0.94-0.5,2.28,0.42,3.01c0.95,0.75,2.33,0.58,3.08-0.37c0,0,1.68-2.13,5.17-6.02
			c-0.01,0-0.02-0.01-0.05-0.01c-1.75-0.35-3.5-0.62-5.26-0.91c-2.23,2.74-3.34,4.26-3.34,4.26L605.11,372.79z"/>
		<path class="st124" d="M457.92,545.6c-6.66-1.03-12.9,3.53-13.93,10.19c-1.03,6.66,3.53,12.9,10.19,13.93
			c6.66,1.03,12.9-3.53,13.94-10.19C469.16,552.87,464.59,546.64,457.92,545.6"/>
		<path class="st124" d="M582.73,564.94c1.03-6.66-3.53-12.9-10.19-13.93c-6.66-1.03-12.89,3.53-13.93,10.19
			c-1.03,6.65,3.53,12.9,10.19,13.93c0.2,0.03,0.39,0.01,0.58,0.03c3.23-1.99,6.8-3.41,10.57-4.23
			C581.36,569.28,582.37,567.25,582.73,564.94"/>
		<path class="st124" d="M579.95,570.93c-3.77,0.82-7.34,2.24-10.57,4.22C573.52,575.6,577.42,573.92,579.95,570.93"/>
		<path class="st124" d="M583.2,723.94c-2.1-4.67-4.11-8.68-5.82-11.94c-1.27-2.4-2.38-4.4-3.28-5.98
			c-2.43,0.04-4.84,0.02-7.27-0.03c0.5,1.83,1.37,4.98,2.61,9.23c1.09,3.66,2.48,8.13,4.13,13.22h11.63
			C584.53,726.88,583.85,725.37,583.2,723.94"/>
		<path class="st124" d="M571.54,701.74c-1.43-0.12-2.9-0.24-4.38-0.36c-0.71,0.71-1.07,1.73-0.81,2.76c0,0,0.17,0.65,0.49,1.84
			c2.42,0.05,4.84,0.06,7.27,0.03c-1.54-2.7-2.45-4.15-2.45-4.15C571.61,701.82,571.56,701.79,571.54,701.74"/>
		<path class="st124" d="M568.45,700.59c-0.52,0.13-0.94,0.43-1.3,0.79c1.48,0.11,2.95,0.24,4.38,0.35
			C570.85,700.79,569.65,700.29,568.45,700.59"/>
		<g>
			<path d="M328.79,847.37c-0.21-2.57-0.41-5.16-0.6-7.78c-0.19-2.61-0.4-5.24-0.66-7.88c-1.84-0.11-3.61-0.22-5.32-0.34
				c-1.71-0.11-3.44-0.17-5.19-0.17h-0.81c-0.21,2.68-0.39,5.33-0.56,7.94c-0.16,2.61-0.31,5.2-0.44,7.77l-15.64-0.22
				c2.59-13.31,4.92-26.58,7.01-39.82c2.08-13.24,3.85-26.58,5.32-40.04l18.83,0.28c1.59,13.31,3.49,26.54,5.73,39.68
				c2.23,13.14,4.85,26.37,7.85,39.68L328.79,847.37z M321.46,780.93c-0.84,6.86-1.63,13.7-2.38,20.52
				c-0.75,6.82-1.44,13.7-2.07,20.64c0.87,0.07,1.77,0.11,2.69,0.11c0.92,0,1.86,0,2.82,0h4.07c-0.71-6.93-1.5-13.81-2.38-20.64
				C323.34,794.74,322.42,787.86,321.46,780.93z"/>
			<path d="M386.86,767.23l-1.56,80.36h-12.02v-5.7c-1.21,1.6-2.38,2.84-3.5,3.72c-1.13,0.88-2.13,1.52-3,1.93
				c-1.04,0.48-2,0.78-2.88,0.89c-2.13,0-4.23-0.57-6.32-1.71c-2.09-1.13-3.96-3.03-5.6-5.68c-1.65-2.65-2.99-6.12-4.04-10.43
				c-1.04-4.31-1.56-9.65-1.56-16.02c0-4.88,0.45-9.18,1.35-12.89c0.9-3.71,2.09-6.81,3.6-9.31c1.5-2.5,3.23-4.38,5.19-5.65
				c1.96-1.27,4-1.9,6.13-1.9c1.13,0.07,2.25,0.34,3.38,0.78c0.96,0.41,2.02,1.03,3.19,1.85c1.17,0.82,2.27,1.98,3.32,3.47
				l-0.81-23.15L386.86,767.23z M373.65,819.91c-0.08-2.53-0.18-5.13-0.28-7.78c-0.1-2.65-0.38-5.06-0.84-7.24
				c-0.46-2.18-1.16-3.97-2.1-5.37c-0.93-1.4-2.26-2.1-3.97-2.1c-1.59,0-2.83,0.58-3.72,1.74c-0.9,1.15-1.56,2.65-2.01,4.47
				c-0.44,1.83-0.69,3.84-0.78,6.04c-0.08,2.2-0.12,4.34-0.12,6.43c0,1.45,0.03,2.98,0.09,4.58c0.06,1.6,0.17,3.2,0.34,4.78
				c0.16,1.59,0.42,3.09,0.75,4.5c0.33,1.42,0.75,2.68,1.25,3.78c0.5,1.1,1.12,1.97,1.85,2.6c0.73,0.63,1.59,0.95,2.59,0.95
				c1.25,0,2.32-0.46,3.19-1.37c0.87-0.91,1.6-2.15,2.16-3.72c0.56-1.57,0.97-3.4,1.22-5.51
				C373.53,824.6,373.65,822.33,373.65,819.91z"/>
			<path d="M430.66,814.88c0,4.55-0.23,8.54-0.69,11.97c-0.46,3.43-1.12,6.41-1.97,8.92c-0.86,2.52-1.88,4.6-3.07,6.26
				c-1.19,1.66-2.5,2.99-3.94,4c-1.44,1.01-3,1.71-4.66,2.12s-3.38,0.62-5.13,0.62c-1.76,0-3.43-0.17-5.04-0.5
				c-1.6-0.34-3.09-0.95-4.47-1.85c-1.38-0.89-2.64-2.11-3.78-3.64c-1.15-1.53-2.12-3.49-2.91-5.87c-0.8-2.38-1.41-5.24-1.85-8.55
				c-0.44-3.32-0.66-7.21-0.66-11.69c0-6.71,0.55-12.21,1.66-16.5s2.55-7.67,4.35-10.15c1.79-2.48,3.84-4.19,6.13-5.15
				c2.3-0.95,4.65-1.43,7.07-1.43c1.55,0,3.1,0.14,4.66,0.42s3.05,0.83,4.45,1.65c1.39,0.82,2.7,1.96,3.91,3.41
				c1.21,1.45,2.25,3.35,3.13,5.68c0.87,2.33,1.56,5.16,2.07,8.47C430.41,806.39,430.66,810.33,430.66,814.88z M417.21,815.32
				c0-3.58-0.15-6.51-0.44-8.81c-0.29-2.29-0.68-4.11-1.19-5.45c-0.5-1.34-1.1-2.26-1.82-2.77c-0.71-0.51-1.48-0.76-2.31-0.76
				c-0.96,0-1.8,0.36-2.5,1.09c-0.71,0.73-1.31,1.89-1.78,3.5c-0.48,1.6-0.85,3.66-1.1,6.18c-0.25,2.52-0.37,5.59-0.37,9.2
				c0,3.66,0.15,6.68,0.46,9.09c0.32,2.41,0.75,4.33,1.32,5.76c0.56,1.44,1.23,2.45,2,3.05c0.77,0.6,1.6,0.89,2.47,0.89
				c1.84,0,3.17-1.7,4.01-5.09C416.79,827.81,417.21,822.52,417.21,815.32z"/>
			<path d="M474.09,812.47c-1.33,0.19-2.73,0.41-4.19,0.67c-1.25,0.22-2.67,0.52-4.25,0.89s-3.17,0.8-4.76,1.28
				c0.42-1.86,0.7-3.49,0.85-4.89c0.14-1.4,0.22-2.67,0.22-3.83c0-2.01-0.2-3.59-0.6-4.72c-0.39-1.14-0.84-1.98-1.35-2.55
				c-0.5-0.56-0.99-0.89-1.47-1.01c-0.48-0.11-0.8-0.17-0.97-0.17c-1.34,0-2.42,0.49-3.25,1.48c-0.84,0.99-1.48,2.29-1.94,3.91
				c-0.46,1.62-0.78,3.48-0.94,5.57c-0.17,2.09-0.25,4.23-0.25,6.43c0,1.57,0.02,3.13,0.07,4.7c0.04,1.57,0.1,3.13,0.19,4.7
				l0.87,21.98l-14.46,0.89c0-8.98-0.09-17.08-0.28-24.3c-0.19-7.21-0.39-13.37-0.6-18.48c-0.25-5.96-0.52-11.28-0.81-15.94
				l12.33-0.72l0.63,6.32c1.08-2.38,2.37-4.28,3.84-5.68c1.48-1.4,2.96-2.44,4.45-3.13c1.48-0.69,2.84-1.13,4.07-1.31
				c1.23-0.19,2.16-0.28,2.78-0.28c2.13,0,3.86,0.61,5.19,1.82s2.38,2.77,3.13,4.67c0.75,1.9,1.26,3.99,1.53,6.26
				c0.27,2.27,0.4,4.48,0.4,6.6c0,1.68-0.05,3.27-0.15,4.78C474.27,809.92,474.17,811.28,474.09,812.47z"/>
			<path d="M514.65,845.41c-3.88,1.19-7.42,1.97-10.61,2.35c-3.19,0.37-5.81,0.56-7.86,0.56c-2.54,0-4.77-0.45-6.69-1.34
				c-1.92-0.89-3.58-2.09-4.98-3.58c-1.4-1.49-2.56-3.22-3.47-5.17c-0.92-1.96-1.65-4.02-2.19-6.18c-0.54-2.16-0.93-4.35-1.16-6.57
				c-0.23-2.22-0.34-4.31-0.34-6.29c0-4.92,0.44-9.46,1.32-13.62s2.15-7.75,3.82-10.77c1.67-3.02,3.73-5.38,6.2-7.08
				c2.46-1.7,5.25-2.54,8.39-2.54c2.59,0,4.94,0.58,7.07,1.73c2.13,1.16,3.94,2.93,5.45,5.31c1.5,2.39,2.66,5.42,3.47,9.09
				c0.81,3.67,1.22,8.03,1.22,13.06c0,1.42-0.03,2.85-0.09,4.31c-0.07,1.45-0.18,2.96-0.34,4.53l-22.16,2.63
				c0.17,1.38,0.43,2.68,0.78,3.91c0.36,1.23,0.84,2.32,1.44,3.27c0.6,0.95,1.32,1.71,2.16,2.26c0.83,0.56,1.85,0.84,3.06,0.84
				c2.25,0,4.51-0.12,6.76-0.36c2.25-0.24,4.61-0.53,7.08-0.87L514.65,845.41z M491.3,816.33l10.39-1.74v-2.12
				c0-3.17-0.27-5.62-0.81-7.35c-0.54-1.73-1.13-3.01-1.76-3.83c-0.75-0.97-1.6-1.53-2.56-1.68c-1.21,0.11-2.17,0.62-2.88,1.51
				c-0.71,0.89-1.24,2.04-1.6,3.44c-0.36,1.4-0.57,2.97-0.66,4.72c-0.09,1.75-0.13,3.52-0.13,5.31V816.33z"/>
			<path d="M554.76,803.3v10.29l-34.35,0.11v-11.24L554.76,803.3z"/>
			<path d="M599.12,811.3c0,5.89-0.03,11.78-0.09,17.67c-0.06,5.89-0.2,12.02-0.4,18.4l-10.89-0.56v-7.55
				c-1.25,2.01-2.67,3.55-4.25,4.61s-3.09,1.86-4.51,2.38c-1.67,0.6-3.32,0.93-4.94,1.01c-2,0-3.88-0.4-5.63-1.2
				c-1.76-0.8-3.28-1.87-4.57-3.22c-1.29-1.34-2.3-2.88-3.03-4.61c-0.73-1.73-1.09-3.53-1.09-5.4c0-2.12,0.51-4.22,1.53-6.29
				c1.02-2.07,2.77-3.94,5.23-5.62c3.3-2.27,6.15-4.17,8.57-5.71c2.42-1.53,4.43-2.91,6.04-4.17c1.6-1.25,2.79-2.44,3.57-3.58
				c0.77-1.14,1.16-2.45,1.16-3.94c0-2.46-0.46-4.29-1.38-5.51c-0.92-1.21-2.13-1.82-3.63-1.82c-0.92,0-1.7,0.22-2.35,0.65
				c-0.65,0.43-1.17,0.99-1.56,1.68c-0.4,0.69-0.69,1.45-0.88,2.29c-0.19,0.84-0.28,1.67-0.28,2.49c0,0.56,0.03,1.18,0.09,1.85
				c0.07,0.67,0.2,1.38,0.41,2.13l-14.4,0.22c-0.08-0.63-0.15-1.24-0.19-1.82c-0.04-0.58-0.07-1.15-0.07-1.71
				c0-2.31,0.44-4.6,1.32-6.85c0.87-2.26,2.16-4.27,3.85-6.04c1.69-1.77,3.74-3.2,6.16-4.28c2.42-1.08,5.19-1.62,8.32-1.62
				c4.05,0,7.25,0.75,9.61,2.26c2.36,1.51,4.15,3.5,5.38,5.96s2.02,5.25,2.38,8.36S599.12,808.05,599.12,811.3z M585.04,827.12
				c0.21-0.93,0.4-2,0.56-3.19c0.17-1.01,0.31-2.23,0.44-3.66c0.13-1.44,0.23-3.05,0.32-4.84c-0.67,0.82-1.32,1.55-1.94,2.18
				c-0.63,0.63-1.21,1.19-1.76,1.68c-0.62,0.56-1.21,1.06-1.75,1.51c-0.96,0.71-1.98,1.5-3.07,2.38c-1.08,0.88-2.08,1.8-2.97,2.77
				c-0.9,0.97-1.65,1.97-2.25,2.99c-0.6,1.03-0.91,2.02-0.91,2.99c0,1.04,0.4,2,1.19,2.88c0.79,0.88,1.77,1.32,2.94,1.32
				c0.87,0,1.78-0.22,2.72-0.67c0.93-0.45,1.83-1.08,2.69-1.9c0.85-0.82,1.61-1.77,2.29-2.85
				C584.21,829.62,584.71,828.43,585.04,827.12z"/>
			<path d="M640.68,803.3v10.29l-34.35,0.11v-11.24L640.68,803.3z"/>
			<path d="M687.74,818.62c-0.42,5.59-1.22,10.29-2.41,14.09c-1.19,3.8-2.61,6.87-4.25,9.2c-1.65,2.33-3.47,4-5.47,5.01
				c-2.01,1.01-4.01,1.51-6.01,1.51c-0.87-0.11-1.79-0.41-2.76-0.89c-0.83-0.41-1.78-1.03-2.84-1.85c-1.07-0.82-2.16-1.94-3.29-3.35
				v5.25h-12.39v-79.36h15.58l-1.37,22.43c1.04-1.42,2.14-2.49,3.29-3.22c1.14-0.73,2.2-1.28,3.16-1.65
				c1.13-0.41,2.23-0.65,3.31-0.73c2.5,0,4.64,0.62,6.41,1.85c1.77,1.23,3.25,2.84,4.45,4.84c1.19,2,2.12,4.23,2.78,6.71
				c0.67,2.48,1.16,4.96,1.47,7.44c0.31,2.48,0.48,4.84,0.5,7.1C687.92,815.26,687.87,817.13,687.74,818.62z M674.41,818.73
				c0-1.12,0.01-2.41,0.03-3.89c0.02-1.47,0.01-2.99-0.03-4.56c-0.04-1.56-0.16-3.1-0.37-4.61c-0.21-1.51-0.54-2.86-0.97-4.05
				c-0.44-1.19-1.04-2.15-1.82-2.88c-0.77-0.73-1.76-1.09-2.97-1.09c-1.34,0-2.47,0.46-3.38,1.37c-0.92,0.92-1.67,2.09-2.25,3.52
				c-0.59,1.44-1.03,3.05-1.35,4.84c-0.31,1.79-0.54,3.56-0.68,5.31c-0.15,1.75-0.23,3.4-0.25,4.95c-0.02,1.55-0.03,2.79-0.03,3.72
				c0,2.2,0.11,4.26,0.34,6.18c0.23,1.92,0.61,3.61,1.13,5.06c0.52,1.45,1.19,2.6,2,3.44c0.81,0.84,1.78,1.26,2.91,1.26
				c1.34,0,2.48-0.56,3.44-1.68c0.96-1.12,1.74-2.56,2.35-4.33c0.61-1.77,1.06-3.76,1.35-5.96
				C674.14,823.13,674.33,820.93,674.41,818.73z"/>
			<path d="M730.54,814.88c0,4.55-0.23,8.54-0.69,11.97c-0.46,3.43-1.12,6.41-1.97,8.92c-0.86,2.52-1.88,4.6-3.07,6.26
				c-1.19,1.66-2.5,2.99-3.94,4c-1.44,1.01-3,1.71-4.66,2.12s-3.38,0.62-5.13,0.62c-1.76,0-3.43-0.17-5.04-0.5
				c-1.6-0.34-3.09-0.95-4.47-1.85s-2.64-2.11-3.78-3.64c-1.15-1.53-2.12-3.49-2.91-5.87c-0.8-2.38-1.41-5.24-1.85-8.55
				c-0.44-3.32-0.66-7.21-0.66-11.69c0-6.71,0.55-12.21,1.66-16.5s2.55-7.67,4.35-10.15c1.79-2.48,3.84-4.19,6.13-5.15
				c2.3-0.95,4.65-1.43,7.07-1.43c1.55,0,3.1,0.14,4.66,0.42s3.05,0.83,4.45,1.65c1.39,0.82,2.7,1.96,3.91,3.41
				c1.21,1.45,2.25,3.35,3.13,5.68c0.87,2.33,1.56,5.16,2.07,8.47C730.29,806.39,730.54,810.33,730.54,814.88z M717.09,815.32
				c0-3.58-0.15-6.51-0.44-8.81c-0.29-2.29-0.68-4.11-1.19-5.45s-1.1-2.26-1.82-2.77c-0.71-0.51-1.48-0.76-2.31-0.76
				c-0.96,0-1.8,0.36-2.5,1.09c-0.71,0.73-1.31,1.89-1.78,3.5c-0.48,1.6-0.85,3.66-1.1,6.18c-0.25,2.52-0.37,5.59-0.37,9.2
				c0,3.66,0.15,6.68,0.46,9.09c0.32,2.41,0.75,4.33,1.32,5.76s1.23,2.45,2,3.05c0.77,0.6,1.6,0.89,2.47,0.89
				c1.84,0,3.17-1.7,4.01-5.09C716.67,827.81,717.09,822.52,717.09,815.32z"/>
			<path d="M773.35,814.88c0,4.55-0.23,8.54-0.69,11.97c-0.46,3.43-1.12,6.41-1.97,8.92c-0.85,2.52-1.88,4.6-3.06,6.26
				c-1.19,1.66-2.5,2.99-3.95,4c-1.44,1.01-2.99,1.71-4.66,2.12s-3.38,0.62-5.13,0.62c-1.75,0-3.43-0.17-5.04-0.5
				c-1.61-0.34-3.1-0.95-4.47-1.85c-1.38-0.89-2.64-2.11-3.79-3.64c-1.15-1.53-2.12-3.49-2.91-5.87c-0.79-2.38-1.41-5.24-1.85-8.55
				c-0.44-3.32-0.66-7.21-0.66-11.69c0-6.71,0.55-12.21,1.66-16.5c1.1-4.29,2.55-7.67,4.35-10.15c1.79-2.48,3.84-4.19,6.13-5.15
				c2.29-0.95,4.65-1.43,7.07-1.43c1.54,0,3.09,0.14,4.66,0.42c1.56,0.28,3.04,0.83,4.44,1.65c1.4,0.82,2.7,1.96,3.91,3.41
				c1.21,1.45,2.25,3.35,3.13,5.68c0.87,2.33,1.56,5.16,2.06,8.47C773.1,806.39,773.35,810.33,773.35,814.88z M759.89,815.32
				c0-3.58-0.15-6.51-0.44-8.81c-0.3-2.29-0.69-4.11-1.19-5.45c-0.5-1.34-1.1-2.26-1.81-2.77c-0.71-0.51-1.48-0.76-2.32-0.76
				c-0.96,0-1.79,0.36-2.5,1.09s-1.3,1.89-1.78,3.5c-0.48,1.6-0.84,3.66-1.09,6.18c-0.25,2.52-0.38,5.59-0.38,9.2
				c0,3.66,0.16,6.68,0.47,9.09c0.31,2.41,0.75,4.33,1.31,5.76s1.23,2.45,2.01,3.05c0.77,0.6,1.59,0.89,2.47,0.89
				c1.83,0,3.17-1.7,4-5.09C759.48,827.81,759.89,822.52,759.89,815.32z"/>
			<path d="M793.75,842.22c0,0.89-0.2,1.73-0.6,2.52c-0.39,0.78-0.92,1.47-1.56,2.04s-1.42,1.03-2.31,1.37
				c-0.9,0.34-1.85,0.5-2.85,0.5s-1.93-0.17-2.78-0.5c-0.86-0.34-1.62-0.79-2.29-1.37c-0.67-0.58-1.19-1.26-1.56-2.04
				c-0.38-0.78-0.56-1.62-0.56-2.52c0-0.9,0.19-1.73,0.56-2.49c0.37-0.76,0.9-1.44,1.56-2.04c0.67-0.6,1.43-1.06,2.29-1.4
				c0.85-0.33,1.78-0.5,2.78-0.5s1.95,0.17,2.85,0.5c0.9,0.34,1.67,0.8,2.31,1.4c0.65,0.6,1.17,1.28,1.56,2.04
				C793.55,840.5,793.75,841.33,793.75,842.22z M794.88,765.83c-1.17,10.33-2.09,20.75-2.76,31.26
				c-0.67,10.51-1.06,20.86-1.19,31.04l-8.32,0.22c-0.3-10.25-0.68-20.65-1.16-31.21c-0.48-10.55-1.03-20.95-1.66-31.2
				L794.88,765.83z"/>
		</g>
		<g>
			<path class="st124" d="M836.79,739.71c2.64,0,5.23,0.68,7.74,2.03c2.52,1.36,4.48,3.3,5.89,5.83c1.41,2.53,2.11,5.16,2.11,7.9
				c0,2.71-0.69,5.33-2.08,7.83c-1.38,2.5-3.32,4.45-5.82,5.84c-2.5,1.38-5.11,2.08-7.84,2.08c-2.73,0-5.35-0.69-7.84-2.08
				c-2.5-1.39-4.45-3.33-5.84-5.84c-1.39-2.51-2.09-5.12-2.09-7.83c0-2.74,0.71-5.37,2.12-7.9c1.41-2.53,3.38-4.47,5.9-5.83
				C831.55,740.39,834.14,739.71,836.79,739.71z M836.79,742.32c-2.21,0-4.37,0.57-6.46,1.7c-2.1,1.13-3.73,2.76-4.92,4.87
				c-1.18,2.11-1.77,4.3-1.77,6.59c0,2.27,0.58,4.45,1.74,6.53c1.16,2.08,2.79,3.7,4.88,4.87c2.09,1.16,4.27,1.74,6.54,1.74
				c2.27,0,4.45-0.58,6.53-1.74c2.09-1.16,3.71-2.78,4.87-4.87c1.15-2.08,1.73-4.26,1.73-6.53c0-2.28-0.59-4.48-1.77-6.59
				c-1.18-2.11-2.82-3.73-4.92-4.87C841.13,742.89,838.99,742.32,836.79,742.32z M829.87,764.18v-16.96h5.83
				c1.99,0,3.43,0.16,4.32,0.47c0.89,0.31,1.6,0.86,2.13,1.64c0.53,0.78,0.79,1.61,0.79,2.49c0,1.24-0.44,2.32-1.32,3.24
				c-0.89,0.92-2.06,1.43-3.52,1.54c0.6,0.25,1.08,0.55,1.44,0.9c0.68,0.67,1.51,1.79,2.5,3.36l2.07,3.32h-3.34l-1.5-2.67
				c-1.18-2.1-2.14-3.42-2.86-3.95c-0.5-0.39-1.24-0.59-2.19-0.59h-1.61v7.2H829.87z M832.61,754.64h3.32
				c1.59,0,2.67-0.24,3.25-0.71c0.57-0.47,0.86-1.1,0.86-1.88c0-0.5-0.14-0.95-0.42-1.35s-0.67-0.69-1.16-0.89
				c-0.49-0.2-1.41-0.29-2.74-0.29h-3.11V754.64z"/>
		</g>
	</g>
</g>
</svg>
