<?xml version="1.0" encoding="utf-8"?>
<!-- Generator: Adobe Illustrator 28.2.0, SVG Export Plug-In . SVG Version: 6.00 Build 0)  -->
<svg version="1.1" id="Layer_1" xmlns="http://www.w3.org/2000/svg" xmlns:xlink="http://www.w3.org/1999/xlink" x="0px" y="0px"
	 viewBox="0 0 1080 1080" style="enable-background:new 0 0 1080 1080;" xml:space="preserve">
<style type="text/css">
	.st0{clip-path:url(#SVGID_00000016793193271990104140000016693638994258411700_);fill:#338FB7;}
	.st1{clip-path:url(#SVGID_00000016793193271990104140000016693638994258411700_);}
	.st2{clip-path:url(#SVGID_00000147926201097633026780000017661748368289639301_);fill:#FFFFFF;}
	.st3{clip-path:url(#SVGID_00000156557500139588733250000006492083176724873368_);fill:#EAF3F8;}
	.st4{fill:#338FB7;}
	.st5{fill:none;}
	.st6{clip-path:url(#SVGID_00000123421601383958795760000012789069118157940363_);fill:#EAF3F8;}
	.st7{clip-path:url(#SVGID_00000168816727491127965200000014084108853181046457_);}
	.st8{clip-path:url(#SVGID_00000101065565536792645860000016146984353746002358_);fill:#1E7493;}
	.st9{clip-path:url(#SVGID_00000101065565536792645860000016146984353746002358_);fill:#9BDAEA;}
	.st10{clip-path:url(#SVGID_00000101065565536792645860000016146984353746002358_);fill:#FEE182;}
	.st11{clip-path:url(#SVGID_00000101065565536792645860000016146984353746002358_);fill:#F8B6BB;}
	.st12{clip-path:url(#SVGID_00000091726197823998590730000002737620447348787132_);fill:#1E7493;}
	.st13{clip-path:url(#SVGID_00000152261448362537112050000017274798727196517542_);fill:#338FB7;}
	.st14{clip-path:url(#SVGID_00000152261448362537112050000017274798727196517542_);}
	.st15{clip-path:url(#SVGID_00000098917129821403049250000018283051971254410934_);fill:#FFFFFF;}
	.st16{clip-path:url(#SVGID_00000098917129821403049250000018283051971254410934_);fill:#338FB7;}
	.st17{clip-path:url(#SVGID_00000098917129821403049250000018283051971254410934_);fill:#E98A4A;}
	.st18{clip-path:url(#SVGID_00000098917129821403049250000018283051971254410934_);fill:#41A387;}
	.st19{clip-path:url(#SVGID_00000098917129821403049250000018283051971254410934_);fill:none;stroke:#1E7493;stroke-miterlimit:10;}
	.st20{clip-path:url(#SVGID_00000098917129821403049250000018283051971254410934_);fill:none;stroke:#338FB7;stroke-miterlimit:10;}
	.st21{clip-path:url(#SVGID_00000098917129821403049250000018283051971254410934_);fill:#F3B71C;}
	.st22{clip-path:url(#SVGID_00000098917129821403049250000018283051971254410934_);fill:none;stroke:#41A387;stroke-miterlimit:10;}
	.st23{clip-path:url(#SVGID_00000098917129821403049250000018283051971254410934_);fill:none;stroke:#F3B71C;stroke-miterlimit:10;}
	.st24{clip-path:url(#SVGID_00000098917129821403049250000018283051971254410934_);fill:none;stroke:#E98A4A;stroke-miterlimit:10;}
	.st25{clip-path:url(#SVGID_00000098917129821403049250000018283051971254410934_);fill:#1E7493;}
	.st26{clip-path:url(#SVGID_00000098917129821403049250000018283051971254410934_);fill:#9BDAEA;}
	.st27{clip-path:url(#SVGID_00000098917129821403049250000018283051971254410934_);fill:#FEE182;}
	.st28{clip-path:url(#SVGID_00000098917129821403049250000018283051971254410934_);fill:#F8B6BB;}
	.st29{clip-path:url(#SVGID_00000093865197589222744560000003156866146836198804_);fill:#1E7493;}
	.st30{clip-path:url(#SVGID_00000132776667742709559250000005090977508545662857_);fill:#1E7493;}
	.st31{clip-path:url(#SVGID_00000132776667742709559250000005090977508545662857_);fill:#41A387;}
	.st32{clip-path:url(#SVGID_00000044144929447732285080000016661848726391576478_);}
	.st33{clip-path:url(#SVGID_00000103968369865612281690000000363376878057890235_);fill:#338FB7;}
	.st34{clip-path:url(#SVGID_00000008136189720487112120000015726815520862769854_);fill:#1E7493;}
	.st35{clip-path:url(#SVGID_00000170262690111825839060000002260554091417244313_);fill:#1E7493;}
	.st36{clip-path:url(#SVGID_00000170262690111825839060000002260554091417244313_);fill:#338FB7;}
	.st37{clip-path:url(#SVGID_00000170262690111825839060000002260554091417244313_);fill:#9BDAEA;}
	.st38{clip-path:url(#SVGID_00000170262690111825839060000002260554091417244313_);fill:#FEE182;}
	.st39{clip-path:url(#SVGID_00000170262690111825839060000002260554091417244313_);fill:#F8B6BB;}
	
		.st40{clip-path:url(#SVGID_00000155120937346858019360000002543843088100916415_);fill:none;stroke:#A09F9F;stroke-width:0.957;stroke-miterlimit:10;}
	
		.st41{clip-path:url(#SVGID_00000155120937346858019360000002543843088100916415_);fill:none;stroke:#A09F9F;stroke-width:0.957;stroke-miterlimit:10;stroke-dasharray:3.615,3.615;}
	
		.st42{clip-path:url(#SVGID_00000155120937346858019360000002543843088100916415_);fill:none;stroke:#A09F9F;stroke-width:0.957;stroke-miterlimit:10;stroke-dasharray:3.644,3.644;}
	.st43{clip-path:url(#SVGID_00000155120937346858019360000002543843088100916415_);}
	.st44{clip-path:url(#SVGID_00000095304365689269992880000007872315965230956717_);fill:#1E7493;}
	.st45{clip-path:url(#SVGID_00000151517552785067280930000006307882545779697798_);fill:#1E7493;}
	
		.st46{clip-path:url(#SVGID_00000151517552785067280930000006307882545779697798_);fill:none;stroke:#D3D3D3;stroke-width:1.224;stroke-miterlimit:10;stroke-dasharray:3.827,3.827;}
	.st47{clip-path:url(#SVGID_00000114789744795517169800000000288809624244864164_);fill:#1E7493;}
	
		.st48{clip-path:url(#SVGID_00000114789744795517169800000000288809624244864164_);fill:none;stroke:#D3D3D3;stroke-width:1.224;stroke-miterlimit:10;stroke-dasharray:3.827,3.827;}
	.st49{clip-path:url(#SVGID_00000032649557080028872920000000292065186108407204_);}
	.st50{clip-path:url(#SVGID_00000179647236919308379060000008302323483760597932_);}
	.st51{clip-path:url(#SVGID_00000131329090067557781850000007177478960377328061_);}
	.st52{opacity:0.6;clip-path:url(#SVGID_00000023254341178193226110000004050652987113118084_);}
	.st53{clip-path:url(#SVGID_00000113339241772468308950000001479021043875889596_);fill:#7B2A8D;}
	.st54{clip-path:url(#SVGID_00000096766709892427856270000003979607984131722164_);fill:#1E7493;}
	.st55{clip-path:url(#SVGID_00000104687900018659808910000012549887852082497424_);fill:#1E7493;}
	.st56{clip-path:url(#SVGID_00000179647236919308379060000008302323483760597932_);fill:#C465A7;}
	.st57{clip-path:url(#SVGID_00000181804485886032372740000006451216142917056640_);fill:#1E7493;}
	.st58{opacity:0.6;clip-path:url(#SVGID_00000181804485886032372740000006451216142917056640_);}
	.st59{clip-path:url(#SVGID_00000057865944163934938380000016172391959359558840_);fill:#1E7493;}
	.st60{clip-path:url(#SVGID_00000057865944163934938380000016172391959359558840_);fill:none;stroke:#000000;stroke-miterlimit:10;}
	.st61{clip-path:url(#SVGID_00000030476265511038122480000015548198919521689229_);fill:#1E7493;}
	.st62{clip-path:url(#SVGID_00000122711735955851559030000005511450894628289947_);fill:#1E7493;}
	.st63{opacity:0.67;clip-path:url(#SVGID_00000004546623254725128000000005426135754060216467_);}
	.st64{clip-path:url(#SVGID_00000000914914521773028780000014630710620032543372_);fill:#1E7493;}
	.st65{clip-path:url(#SVGID_00000004546623254725128000000005426135754060216467_);fill:#F05253;}
	.st66{opacity:0.6;clip-path:url(#SVGID_00000004546623254725128000000005426135754060216467_);}
	.st67{clip-path:url(#SVGID_00000133510251447954081560000010273414967464522929_);fill:#1E7493;}
	.st68{opacity:0.75;clip-path:url(#SVGID_00000029006173823164847430000001848519534975072662_);}
	.st69{clip-path:url(#SVGID_00000066488115221657918990000005878654659068012202_);}
	.st70{clip-path:url(#SVGID_00000029006173823164847430000001848519534975072662_);fill:#1E7493;}
	.st71{clip-path:url(#SVGID_00000067919323651850067220000011974510939556222621_);}
	.st72{clip-path:url(#SVGID_00000013910625045466321460000005859320130934174630_);}
	.st73{opacity:0.6;clip-path:url(#SVGID_00000145776038613921212940000008870190084718401974_);}
	.st74{clip-path:url(#SVGID_00000027568187646666808890000013218644836086764193_);fill:#1E7493;}
	.st75{clip-path:url(#SVGID_00000127008082991737252900000002672670331091301055_);fill:#1E7493;}
	.st76{clip-path:url(#SVGID_00000059991673605524396930000014268950661256194984_);fill:#1E7493;}
	.st77{clip-path:url(#SVGID_00000133527130800352882680000010209346114512457106_);fill:#1E7493;}
	.st78{clip-path:url(#SVGID_00000133527130800352882680000010209346114512457106_);fill:#F05253;}
	.st79{clip-path:url(#SVGID_00000032621812162448213650000004601081594449819534_);fill:#F05253;}
	.st80{clip-path:url(#SVGID_00000142856210033589583320000004084500399714806701_);fill:none;stroke:#606161;stroke-miterlimit:10;}
	.st81{clip-path:url(#SVGID_00000142856210033589583320000004084500399714806701_);fill:#FFFFFF;}
	.st82{clip-path:url(#SVGID_00000142856210033589583320000004084500399714806701_);}
	.st83{clip-path:url(#SVGID_00000140733874564245556840000008175778510419978115_);fill:#1E7493;}
	.st84{clip-path:url(#SVGID_00000140733874564245556840000008175778510419978115_);fill:#338FB7;}
	.st85{clip-path:url(#SVGID_00000140733874564245556840000008175778510419978115_);fill:#69B9D6;}
	.st86{clip-path:url(#SVGID_00000140733874564245556840000008175778510419978115_);fill:#A7DCE8;}
	.st87{clip-path:url(#SVGID_00000086658862522868882490000004783554506971076509_);fill:#41A387;}
	.st88{clip-path:url(#SVGID_00000086658862522868882490000004783554506971076509_);fill:#68BCA0;}
	.st89{clip-path:url(#SVGID_00000086658862522868882490000004783554506971076509_);fill:#91D1BB;}
	.st90{clip-path:url(#SVGID_00000086658862522868882490000004783554506971076509_);fill:#F3B71C;}
	.st91{clip-path:url(#SVGID_00000086658862522868882490000004783554506971076509_);fill:#F9CF71;}
	.st92{clip-path:url(#SVGID_00000086658862522868882490000004783554506971076509_);fill:#FFDB94;}
	.st93{clip-path:url(#SVGID_00000016044988073673022290000001244408468341782957_);fill:#E98A4A;}
	.st94{clip-path:url(#SVGID_00000016044988073673022290000001244408468341782957_);fill:#F4A56E;}
	.st95{clip-path:url(#SVGID_00000016044988073673022290000001244408468341782957_);fill:#FCC6A0;}
	
		.st96{clip-path:url(#SVGID_00000043447134630778650150000000715707260838308742_);fill:none;stroke:#A09F9F;stroke-width:0.254;stroke-miterlimit:10;}
	
		.st97{clip-path:url(#SVGID_00000043447134630778650150000000715707260838308742_);fill:none;stroke:#A09F9F;stroke-width:0.259;stroke-miterlimit:10;}
	
		.st98{clip-path:url(#SVGID_00000043447134630778650150000000715707260838308742_);fill:none;stroke:#A09F9F;stroke-width:0.272;stroke-miterlimit:10;}
	.st99{clip-path:url(#SVGID_00000043447134630778650150000000715707260838308742_);}
	.st100{clip-path:url(#SVGID_00000117671153724467057730000004428389992529844888_);fill:#1E7493;}
	.st101{clip-path:url(#SVGID_00000155827329551931468330000004660669843896488088_);fill:#1E7493;}
	.st102{clip-path:url(#SVGID_00000176012754185332655990000018043994478060194217_);}
	.st103{clip-path:url(#SVGID_00000150821761018455390280000016381070159032881548_);fill:#1E7493;}
	
		.st104{clip-path:url(#SVGID_00000117669620038064869110000001684340914222806425_);fill:none;stroke:#A09F9F;stroke-width:0.259;stroke-miterlimit:10;}
	
		.st105{clip-path:url(#SVGID_00000117669620038064869110000001684340914222806425_);fill:none;stroke:#A09F9F;stroke-width:0.272;stroke-miterlimit:10;}
	
		.st106{clip-path:url(#SVGID_00000164502723476253416800000006193486707848099242_);fill:none;stroke:#A09F9F;stroke-width:0.272;stroke-miterlimit:10;}
	
		.st107{clip-path:url(#SVGID_00000026158276900548875040000010620137378717568957_);fill:none;stroke:#A09F9F;stroke-width:0.254;stroke-miterlimit:10;}
	.st108{clip-path:url(#SVGID_00000128460333766527343860000006657604713365192344_);fill:#1E7493;}
	.st109{clip-path:url(#SVGID_00000126291847665157684840000017774986330619547304_);}
	.st110{clip-path:url(#SVGID_00000134211074535062473980000009821003347967610538_);fill:#1E7493;}
	
		.st111{clip-path:url(#SVGID_00000057135233347897851690000003976735732944279443_);fill:none;stroke:#A09F9F;stroke-width:0.254;stroke-miterlimit:10;}
	
		.st112{clip-path:url(#SVGID_00000160905771016969641150000013462872698152075193_);fill:none;stroke:#A09F9F;stroke-width:0.259;stroke-miterlimit:10;}
	
		.st113{clip-path:url(#SVGID_00000160905771016969641150000013462872698152075193_);fill:none;stroke:#A09F9F;stroke-width:0.272;stroke-miterlimit:10;}
	
		.st114{clip-path:url(#SVGID_00000092448722730970756530000010561206047702558090_);fill:none;stroke:#A09F9F;stroke-width:0.272;stroke-miterlimit:10;}
	.st115{clip-path:url(#SVGID_00000145761964328865731000000013389359435085138363_);fill:#1E7493;}
	.st116{clip-path:url(#SVGID_00000080890365662222952630000002526905030100540059_);}
	.st117{clip-path:url(#SVGID_00000087390531913149346130000010723907816341599876_);fill:#9BDAEA;}
	.st118{clip-path:url(#SVGID_00000087390531913149346130000010723907816341599876_);fill:#FEE182;}
	.st119{clip-path:url(#SVGID_00000087390531913149346130000010723907816341599876_);fill:#F8B6BB;}
	.st120{clip-path:url(#SVGID_00000087390531913149346130000010723907816341599876_);fill:#1E7493;}
	.st121{fill:#FFFFFF;}
	.st122{fill:#82CA9C;}
	.st123{fill:#3D3633;}
	.st124{fill:#1A1A18;}
	.st125{fill:#676767;}
	.st126{fill:#F6E4DB;}
	.st127{fill:#DE956D;}
	.st128{fill:none;stroke:#000000;stroke-width:1.2094;stroke-miterlimit:10;}
	.st129{fill:none;stroke:#1A1A18;stroke-width:1.2094;stroke-miterlimit:10;}
</style>
<g>
	<path class="st4" d="M222.68,566.78c8.84,2.21,17.31,6.56,23.37,13.35c6.06,6.8,9.48,16.2,8.02,25.19
		c-1.82,11.17-10.83,20.16-21.18,24.71c-10.35,4.56-21.95,5.34-33.26,5.4c-6.77,0.04-14.46-0.59-18.72-5.85
		c-2.88-3.55-3.45-8.38-3.88-12.93c-2.71-28.55-4.38-57.2-5.02-85.87c-0.07-3.23,0.01-6.83,2.27-9.14c1.93-1.97,4.9-2.41,7.65-2.61
		c16.77-1.22,41.76,1.8,50.11,19.13C236.85,548.15,232.47,561.57,222.68,566.78 M210.55,579.3c-7.26-0.01-14.57,1.12-20.66,2.48
		c-0.72,0.16-1.5,0.37-1.94,0.96c-0.39,0.52-0.42,1.22-0.42,1.88c-0.13,11.03,0.87,22.08,2.99,32.91c0.29,1.47,0.65,3.03,1.73,4.06
		c1.15,1.09,2.83,1.34,4.41,1.49c10.35,0.96,20.91-0.37,30.7-3.87c5.69-2.03,11.49-5.15,14.17-10.57c2.62-5.31,1.57-11.94-1.7-16.87
		C233.5,582.25,222.08,579.33,210.55,579.3 M183.18,543.17c0.01,8.02,1.24,16.05,3.67,23.7c0.18,0.58,0.41,1.2,0.93,1.51
		c0.55,0.33,1.25,0.19,1.87,0.04c4.87-1.18,9.69-2.58,14.43-4.21c6.9-2.37,14.1-5.59,17.84-11.86c0.91-1.52,1.6-3.26,1.46-5.03
		c-0.16-2.12-1.46-3.98-2.89-5.56c-8.62-9.56-22.49-12.07-34.56-8.55c-0.65,0.19-1.32,0.41-1.77,0.91
		c-0.53,0.59-0.64,1.45-0.71,2.24C183.27,538.62,183.18,540.89,183.18,543.17"/>
	<path class="st4" d="M296.06,635.4c-3.58,0-7.14-0.48-10.46-1.79c-7.42-2.93-12.81-9.79-15.43-17.33
		c-2.61-7.54-2.74-15.72-2.04-23.66c0.9-10.15,3.28-20.5,9.36-28.67c12.46-16.75,39.1-15.21,39.58,9.16
		c0.17,8.58-4.78,17.05-12.33,21.13c-7.34,3.97-16.14,3.76-24.48,3.45c-3.04,9.3,2.1,20.22,10.77,24.74
		c8.67,4.53,19.85,2.93,27.65-2.97c2.83-2.14,6.26-4.96,9.45-3.41c2.64,1.29,3.13,5.13,1.69,7.7c-1.44,2.57-4.17,4.1-6.84,5.34
		c-6.65,3.08-13.8,5.09-21.08,5.95C299.98,635.25,298.02,635.4,296.06,635.4 M297.65,565.66c-3.83,0.09-7.88,1.74-10.49,4.82
		c-3.23,3.83-4.88,8.7-6.35,13.49c-0.23,0.76-0.45,1.66,0.02,2.3c0.34,0.46,0.92,0.65,1.48,0.8c4.91,1.35,10.19,1.94,15.07,0.48
		c4.88-1.46,9.26-5.32,10.25-10.31C309.23,569.24,303.71,565.52,297.65,565.66"/>
	<path class="st4" d="M352.51,595.4c-0.36,4.3-0.12,8.41,0.94,12.43c0.86,3.26,1.84,6.49,3.97,9.24c3.35,4.32,7.64,6.71,13.09,7.6
		c9.5,1.55,17.57-1.4,24.96-7.04c2.53-1.93,3.37-2.06,4.98-0.63c1.92,1.7,2.44,4.73,1.11,6.88c-1.65,2.65-4.08,4.55-6.79,5.91
		c-7.12,3.58-14.67,5.85-22.7,5.59c-8.5-0.28-16.15-3-22.17-9.27c-2.78-2.9-4.76-6.47-6.12-10.19c-3.88-10.68-4.66-21.62-1.66-32.69
		c0.97-3.59,2.13-7.11,3.69-10.52c3.1-6.83,8.25-11.83,14.45-15.59c5.68-3.45,12-4.83,18.7-2.91c2.32,0.66,4.33,1.82,5.96,3.53
		c3.31,3.46,5.6,7.42,5.93,12.38c0.26,4.08,0.54,8.11-0.83,12.09c-1.48,4.3-4.13,7.61-8.13,9.73c-4.53,2.39-9.21,4.38-14.34,5.16
		c-3.69,0.56-7.22-0.38-10.81-0.87C355.39,596.02,354.05,595.7,352.51,595.4 M380.64,573.67c0.23-7.89-8.32-13.32-15.33-8.4
		c-2.46,1.73-4.29,4.22-5.84,6.79c-2.15,3.56-3.88,7.39-5.12,11.36c-0.19,0.6-0.36,1.3-0.03,1.83c0.3,0.49,0.9,0.67,1.45,0.81
		c4.85,1.21,10.06,1.54,14.78-0.09c4.72-1.63,8.86-5.5,9.86-10.39C380.55,574.93,380.62,574.29,380.64,573.67"/>
	<path class="st4" d="M693.18,601.2c0.02-3.36,0.34-6.74,0.84-10.01c1.41-9.06,4.17-18.13,9.8-25.37
		c9.24-11.89,30.98-18.71,37.89-0.79c3.67,9.51,0.57,21.1-7.07,27.85c-7.64,6.75-19.22,8.45-28.66,4.62
		c-1.49,6.22-0.17,13.05,3.52,18.27c3.69,5.22,9.69,8.74,16.05,9.41c10.19,1.08,19.69-4.74,29.61-7.31
		c1.39-0.36,2.97-0.63,4.18,0.15c1.5,0.96,1.7,3.2,0.89,4.78c-0.81,1.59-2.34,2.65-3.86,3.58c-5.87,3.61-12.36,6.23-19.1,7.7
		c-13.31,2.9-28.93,0.47-37.4-10.2C694.85,617.55,693.13,609.41,693.18,601.2 M715.87,588.26c4.44-0.06,8.88-1,12.95-2.78
		c1.51-0.66,3.03-1.47,4.04-2.78c1.59-2.04,1.65-4.87,1.41-7.44c-0.2-2.18-0.59-4.41-1.72-6.29c-4.46-7.45-14-0.81-17.84,3.79
		c-3.17,3.79-5.22,8.38-6.91,13.03c-0.17,0.46-0.32,1.03,0,1.41c0.2,0.24,0.53,0.32,0.83,0.39
		C711.02,588.07,713.45,588.29,715.87,588.26"/>
	<path class="st4" d="M446.86,635.39c-2.55,0.04-5.1-0.03-7.66-0.23c-2.63-0.21-5.43-0.62-7.42-2.36c-2.42-2.12-3.01-5.59-3.42-8.78
		c-4.23-32.03-6.93-64.26-8.11-96.54c-0.09-2.35-0.14-4.81,0.94-6.9c2.28-4.39,8.58-3.72,10.45,0.57c0.81,1.85,0.91,3.93,1.01,5.95
		c1.43,30.45,3.83,60.86,7.18,91.16c0.27,2.48,0.87,5.41,3.17,6.37c1.28,0.54,2.74,0.28,4.1,0.01c11.88-2.33,23.74-4.74,35.58-7.23
		c2.32-0.49,4.92-0.93,6.89,0.38c2.93,1.94,2.44,6.73-0.05,9.21c-2.49,2.48-6.15,3.27-9.6,3.95
		C469,633.08,457.95,635.24,446.86,635.39"/>
	<path class="st4" d="M562.08,531.65c-0.02,4.11-0.63,8.15-1.31,12.2c-0.91,5.48-1.57,10.99-2.3,16.5
		c-0.25,1.84-0.16,1.93,1.83,1.94c2.05,0,4.1-0.11,6.14-0.08c1.16,0.01,2.35,0.1,3.48,0.33c2.98,0.61,4.2,2.09,4.29,5.01
		c0.09,3.16-1.42,4.94-4.64,5.19c-3.3,0.25-6.62,0.36-9.93,0.54c-3.01,0.17-2.92,0.18-3.08,3.23c-0.4,7.88,1.26,15.5,2.63,23.18
		c1.06,5.97,2.33,11.83,4.9,17.37c1.08,2.34,2.5,4.41,4.18,6.31c1.93,2.17,4.85,2.75,7.29-0.15c1.34-1.6,2.08-3.5,2.79-5.42
		c1.43-3.88,4.62-6.05,8.48-5.84c2.49,0.14,3.56,1.13,3.7,3.57c0.12,2.17-0.15,4.32-1.27,6.22c-2.97,5.06-6.88,9.21-12.14,11.94
		c-6.51,3.38-15.34,1.39-19.73-4.51c-4.8-6.45-7.89-13.64-8.93-21.64c-1.24-9.47-2.4-18.95-3.59-28.43
		c-0.29-2.31-0.28-2.35-2.71-2.36c-2.73-0.01-5.45-0.14-8.15-0.56c-3.15-0.49-4.82-1.83-4.92-4.07c-0.13-2.93,2.04-5.87,4.79-6.48
		c2.94-0.66,6-0.65,8.92-1.49c2.53-0.72,2.61-0.64,2.55-3.21c-0.2-8.16,1.65-16.08,2.8-24.07c0.63-4.33,1.1-8.71,2.82-12.81
		c0.69-1.65,1.52-3.15,3.23-3.98c2.78-1.36,5.63-0.32,7.02,2.63c0.9,1.92,0.86,3.98,0.84,6.03
		C562.07,529.7,562.08,530.68,562.08,531.65"/>
	<path class="st4" d="M620.05,531.65c-0.02,4.11-0.63,8.15-1.31,12.2c-0.91,5.48-1.57,10.99-2.3,16.5
		c-0.25,1.84-0.16,1.93,1.83,1.94c2.05,0,4.1-0.11,6.14-0.08c1.16,0.01,2.35,0.1,3.48,0.33c2.98,0.61,4.2,2.09,4.29,5.01
		c0.09,3.16-1.42,4.94-4.64,5.19c-3.3,0.25-6.62,0.36-9.93,0.54c-3.01,0.17-2.92,0.18-3.08,3.23c-0.4,7.88,1.26,15.5,2.63,23.18
		c1.06,5.97,2.33,11.83,4.9,17.37c1.08,2.34,2.5,4.41,4.18,6.31c1.93,2.17,4.85,2.75,7.29-0.15c1.34-1.6,2.08-3.5,2.79-5.42
		c1.43-3.88,4.62-6.05,8.48-5.84c2.49,0.14,3.56,1.13,3.7,3.57c0.12,2.17-0.15,4.32-1.27,6.22c-2.97,5.06-6.88,9.21-12.14,11.94
		c-6.51,3.38-15.34,1.39-19.73-4.51c-4.8-6.45-7.89-13.64-8.93-21.64c-1.24-9.47-2.4-18.95-3.59-28.43
		c-0.29-2.31-0.28-2.35-2.71-2.36c-2.73-0.01-5.45-0.14-8.15-0.56c-3.15-0.49-4.82-1.83-4.92-4.07c-0.13-2.93,2.04-5.87,4.79-6.48
		c2.94-0.66,6-0.65,8.92-1.49c2.53-0.72,2.61-0.64,2.55-3.21c-0.2-8.16,1.65-16.08,2.8-24.07c0.62-4.33,1.1-8.71,2.82-12.81
		c0.69-1.65,1.52-3.15,3.23-3.98c2.78-1.36,5.63-0.32,7.01,2.63c0.9,1.92,0.86,3.98,0.84,6.03
		C620.04,529.7,620.05,530.68,620.05,531.65"/>
	<path class="st4" d="M662.73,613.17c0.01-4.38,0.23-8.77,0.45-13.14c1.21-23.5,2.43-47.03,5.65-70.33c0.42-3.05,1.09-6.72,3.15-9.1
		c2.27-2.63,6.12-3.1,7.62,0.77c0.67,1.72,0.55,3.64,0.42,5.49c-0.35,4.9-0.69,9.8-1.04,14.7c-1.99,28.2-3.98,56.4-5.97,84.6
		c-0.14,2.02-0.32,4.14-1.36,5.86c-1.04,1.72-3.26,2.86-5.01,1.96c-1.53-0.79-2.12-2.71-2.48-4.45
		C663.06,624.15,662.73,618.67,662.73,613.17"/>
	<path class="st4" d="M516.9,622.27c-0.14-17.02-0.89-34.1-4.06-50.83c-0.38-2.01-0.82-4.06-1.9-5.79
		c-2.09-3.33-8.36-4.99-10.3-0.56c-0.86,1.96-0.58,4.2-0.31,6.32c2.35,17.95,3.85,36.02,4.49,54.11c0.14,3.92,1.1,8.92,4.95,9.66
		c2.49,0.47,4.96-1.38,6.04-3.67c1.08-2.29,1.1-4.93,1.08-7.46C516.9,623.45,516.9,622.86,516.9,622.27"/>
	<path class="st4" d="M501.86,532.16c0.83-0.01,1.67,0.11,2.46,0.36c2.45,0.79,4.44,2.87,5.13,5.35c1.1,3.94-1.06,8.11-3.91,11.04
		c-1.6,1.64-3.56,3.11-5.83,3.39c-2.39,0.3-4.91-0.85-6.24-2.87c-2.62-3.96,0.08-12.77,3.57-15.57
		C498.39,532.78,500.12,532.19,501.86,532.16"/>
	<path class="st4" d="M904.58,503.32c-6.88-8.5-16.98-12.78-27.66-11.21c-1.52,0.22-3.37,0.45-4.89,0.64
		c0.88-1.21,1.42-1.88,1.82-2.33c4.04-4.62,7.35-9.6,9.96-15.15c2.51-5.35,3.77-10.97,3.21-16.73c-0.78-8.09-8.61-12.83-16.32-11.28
		c-6.17,1.24-11.78,5.57-16.09,9.99c-0.97,1-1.9,2.04-2.78,3.12c-2.53,3.1-4.63,6.55-6.16,10.26c-1.68,4.07-2.44,8.42-3.54,12.66
		c0.43-0.76-8.29-7.85-9.2-8.52c-5.92-4.35-12.9-7.03-20.25-7.48c-2.8-0.17-5.19,0.03-6.43-2.99c-1.4-3.41-2.53-6.83-4.36-10.07
		c-0.65-1.14-1.39-2.08-1.62-3.38c-0.22-1.27,0.41-2.51-0.08-3.78c-0.48-1.26-1.6-2.33-2.95-2.47c-1.49-0.15-2.87,0.82-3.88,1.94
		c-0.64,0.71-1.21,1.51-1.48,2.43c-1.4,4.79,5.28,2.9,6.63,5.99c1.39,3.19,2.87,6.33,3.39,9.83c0.48,3.2-1.16,3.14-3.87,4.41
		c-6.66,3.13-11.83,9.74-15.81,15.73c-0.19,0.29-0.45,0.61-0.8,0.58c-0.2-0.02-0.36-0.16-0.51-0.29c-2.69-2.35-5.11-4.48-8.37-6
		c-1.64-0.77-3.13-1.62-4-3.53c-0.9-2-3.66-2.71-5.28-1.88c-2.23,1.13-3.02,3.64-1.94,6.15c0.9,2.1,3.16,3.03,5.45,1.71
		c1.85-1.06,2.92-0.37,4.37,0.56c2.71,1.73,4.63,4.23,6.95,6.34c2.78,2.53,0.89,5.99,0.32,9.07c-0.75,4.08-0.87,8.42-0.55,12.44
		c0.38,4.8,1.39,9.9,2.99,14.94c0.14,2.2-0.15,4.28-1.06,6.43c-1.09,2.56-2.84,4.59-4.45,6.76c-0.89,1.2-1.74,1.05-2.7,0.14
		c-1.19-1.12-2.09-2.47-3.27-3.62c-2.64-2.57-5.18-5.23-8.15-7.46c-0.81-0.61-1.52-1.35-0.98-2.76c3.36-8.84,3.26-19.19,0.66-28.22
		c-0.89-3.08-3.6-7.04-7.21-6.91c-5.39,0.2-8.02,7.28-7.72,11.81c0.07,1.13,0.63,9.23,1.4,10.14c-1.46-1.15-3.6-2.96-5.03-4.07
		c-3.15-2.44-7.13-4.79-11.24-4.89c-1.39-0.04-2.85,0.4-3.76,1.45c-4.35,5.04,3.96,12.24,6.91,14.73
		c-5.78-1.48-14.83,0.95-14.91,7.67c-0.08,6.28,10.59,7.31,15.08,7.17c6.36-0.19,12.45-2.56,18.06-5.39
		c2.51-1.27,2.47-1.23,4.51,0.57c3.02,2.67,5.59,5.77,8.47,8.56c1.58,1.53,2.28,2.54,1.26,4.88c-1.85,4.23-0.35,6.13,4.17,6.11
		c0.11,0,0.22,0.01,0.33-0.03c1.51-0.51,2.22,0.34,2.68,1.59c1.9,5.08,4.48,9.87,6.3,15c0.68,1.91,1.89,3.63,2.95,5.38
		c0.39,0.64,1.05,1.17,1.92,0.92c0.85-0.25,1.16-0.98,1.18-1.77c0.02-0.75-0.02-1.54-0.21-2.27c-0.72-2.84-1.55-5.66-2.85-8.3
		c-1.96-4-3.28-8.28-5.52-12.15c-0.35-0.6-0.85-1.44-0.07-2.09c3.11-2.56,4.37-6.5,6.96-9.64l-0.47-1.39
		c6.9,14.82,19.24,27.1,36.32,26.32c2.31-0.1,3.54,0.97,4.86,2.56c2.34,2.82,5.18,5.29,8.61,6.67c2.02,0.82,7.93,2.55,7.68-1.63
		c-0.08-1.34-1.15-2.42-2.33-3.06c-2-1.08-4.31-1.83-6.42-2.68c-1.1-0.44-2.14-0.93-2.8-1.93c0.46-0.69,1.05-0.59,1.55-0.69
		c5.78-1.1,11.4-2.66,16.56-5.58c1.22-0.69,1.65,0,2.31,0.86c2.88,3.76,6.67,6.14,11.31,7.17c1.8,0.4,4.64,0.01,5.35-2.02
		c0.45-1.29-0.39-2.74-1.56-3.45c-1.6-0.96-3.68-0.94-5.42-1.61c-1.84-0.7-3.58-1.58-5.29-2.56c-1.83-1.04-1.82-1.62-0.64-3.32
		c1.35-1.95,3.01-3.71,3.89-5.98c1.61-4.17,2.6-8.47,3.1-12.91c0.29-2.66,0.38-2.68,2.93-1.99c7.65,2.04,15.39,2.58,23.24,1.51
		c5.8-0.79,12.7-3.22,16.92-7.42C909.39,516.48,909,508.78,904.58,503.32 M748.09,526.59c-0.01,0.02-0.03,0.04-0.04,0.06
		c-0.7,0.99-2.06,1.7-3.19,2.13c-1.71,0.66-3.56,0.98-5.39,1.26c-3.64,0.55-7.42,0.36-10.97-0.62c-2.1-0.58-7.97-2.41-4.7-5.18
		c2.54-2.86,7.89-3.07,11.44-2.68c2.48,0.27,4.91,0.87,7.26,1.67c1,0.34,5.84,1.58,5.77,2.88
		C748.27,526.29,748.18,526.45,748.09,526.59 M749.79,520.87c-0.25,0.25-0.62,0.4-0.98,0.41c-3.01,0.03-6.13-1.66-8.67-3.11
		c-2.92-1.67-5.99-3.77-8.12-6.39c-0.96-1.18-1.69-2.6-1.82-4.12c-0.28-3.46,4.8-1.05,6.24-0.29c4.36,2.31,8.27,5.48,11.44,9.26
		C748.53,517.4,750.84,519.83,749.79,520.87 M757.57,519.71c-0.18,0.87-0.78,2.57-1.61,2.71c-0.33,0.06-0.69-0.13-1.07-0.7
		c-2.33-3.48-3.21-7.87-3.93-11.93c-0.76-4.33-1.09-8.96,0.24-13.21c0.32-1.02,0.79-2.06,1.7-2.62c4.26-2.62,5.46,8.01,5.55,10.18
		C758.65,509.35,758.6,514.58,757.57,519.71 M849.44,473.94c1.59-4.12,3.94-7.6,6.81-10.96c4.94-5.77,12.64-12.32,20.98-10.53
		c1.89,0.41,3.08,1.25,3.71,3.04c0.75,2.14,0.9,4.31,0.71,6.55c-0.83,10.11-6.32,19.39-12.86,27.03
		c-1.74,2.03-11.87,13.86-14.97,11.95c-0.25-0.15-0.41-0.41-0.56-0.66c-1.13-1.87-2.27-3.75-3.4-5.62
		c-1.82-3.01-2.73-5.71-2.96-8.38C846.55,482.43,847.66,478.56,849.44,473.94 M782.63,498.11c0.31-1.74,0.71-3.46,1.17-5.16
		c0.19-0.7,1.8-4.28,1.51-4.77c1.64,2.78,4.07,4.96,7.39,5.32c5.71,0.61,15.83-4.18,16.38-10.72c0.18-2.07-1.05-4.11-2.82-5.19
		c-4.56-2.8-10.66,0.25-12.34,5.03c-0.2,0.58-0.34,1.23-0.12,1.81c0.31,0.83,1.31,1.26,2.2,1.16c2.53-0.28,3.45-3.37,5.29-4.8
		c0.49-0.38,1.07-0.73,1.68-0.65c0.61,0.08,1.11,0.61,1.27,1.21c0.16,0.6,0.03,1.25-0.24,1.81c-1.42,2.94-6.1,4.87-9.05,5.48
		c-1.82,0.38-3.74,0.36-4.94-1.56c-1.18-1.9-0.95-3.82,0.26-5.52c5.97-8.35,13.68-12.61,24.31-10.99
		c7.8,1.18,13.99,5.21,19.71,10.41c5.17,4.7,10.55,10.88,10.67,18.26c0.22,13.33-13.76,23.89-25.1,28.06
		c-14.74,5.43-35.54,4.46-37.85-14.87C781.48,507.73,781.79,502.77,782.63,498.11 M793.76,541.05c-3.28-2.72-5.01-6.91-6.35-11.01
		c-0.02-0.06-0.04-0.11-0.05-0.17c10.86,6.65,24.84,7.11,36.53,2.16c5.83-2.47,11.11-6.23,15.56-10.81
		c3.56-3.66,6.13-7.61,8.55-12.1c0.42-0.79,1.17-2.67,1.98-3.09c0.79-0.4,1.28,0.48,1.71,1.26c1.77,3.18,0.96,7.64-0.03,10.95
		c-4.24,14.11-16.83,25.21-31.07,27.32c-5.37,0.79-10.84,0.4-16.2-0.48C800.62,544.45,796.74,543.51,793.76,541.05 M846.47,549.7
		c-4.26,3.13-9.44,4.71-14.62,5.64c-5.36,0.97-10.89,1.29-16.25,0.33c-5.33-0.96-10.5-3.24-14.44-6.99
		c-0.03-0.03-0.05-0.05-0.08-0.08c7.46,1.82,15.3,2.3,22.84,0.85c7.37-1.42,14.58-5.09,20.18-10.15c5.24-4.73,8.45-11.1,11.31-17.47
		C858.27,531.83,854.79,543.59,846.47,549.7 M903.04,513.74c-0.1,1.07-0.53,2.03-1.12,2.92c-4.9,7.35-15.98,8.81-24.28,8.93
		c-0.52,0.01-1.1,0.02-1.71,0.03c-4.62,0.05-11.35-0.1-14.47-2.95c-1.56-1.42-1.57-3.73-2-5.62c-0.59-2.56-1.44-5.07-2.54-7.47
		c-0.33-0.72-0.69-1.49-0.55-2.26c0.51-2.88,6.56-5.5,8.93-6.59c3.66-1.69,7.59-2.77,11.57-3.47c8.61-1.52,16.09,0.85,22.43,6.58
		C902.22,506.47,903.4,509.87,903.04,513.74"/>
	<path class="st4" d="M817.96,506.41c0.13-0.92-0.08-1.85-0.34-2.74c-0.42-1.45-0.95-2.86-1.58-4.23c-0.49-1.04-1.06-2.08-2.01-2.73
		c-0.95-0.64-2.35-0.74-3.16,0.06c-0.56,0.55-0.72,1.38-0.79,2.16c-0.03,0.4-0.04,0.79-0.03,1.17c0.06,2.29,0.83,4.43,1.97,6.44
		C813.32,508.85,817.47,509.82,817.96,506.41"/>
	<path class="st4" d="M791.91,509.8c0.25,1.22,0.77,2.44,1.76,3.19c0.99,0.75,2.5,0.9,3.44,0.08c0.76-0.67,0.98-1.76,1.02-2.78
		c0.09-1.93-0.25-3.88-0.99-5.67c-0.37-0.9-0.87-1.79-1.65-2.37c-0.78-0.58-1.91-0.79-2.74-0.29c-1.18,0.71-1.43,2.47-1.34,4.23
		C791.47,507.58,791.74,508.95,791.91,509.8"/>
	<path class="st4" d="M803.01,521.77c1.74,1.52,4.37,2.13,6.43,1.08c2.09-1.07,3.12-3.63,2.9-5.97c-0.01-0.15-0.03-0.31-0.06-0.46
		c-0.04-0.21-0.11-0.42-0.21-0.61c-0.83-1.6-2.24-1.62-2.76,0.01c-0.36,1.12-0.23,2.48-1.17,3.35c-0.55,0.51-1.41,0.67-2.11,0.39
		c-0.6-0.24-1.04-0.75-1.44-1.25c-0.4-0.5-0.81-1.03-1.38-1.33c-0.57-0.3-1.35-0.31-1.78,0.16c-0.37,0.4-0.39,1.01-0.29,1.54
		C801.36,519.88,802.09,520.95,803.01,521.77"/>
</g>
</svg>
