<?xml version="1.0" encoding="utf-8"?>
<!-- Generator: Adobe Illustrator 28.2.0, SVG Export Plug-In . SVG Version: 6.00 Build 0)  -->
<svg version="1.1" id="Layer_1" xmlns="http://www.w3.org/2000/svg" xmlns:xlink="http://www.w3.org/1999/xlink" x="0px" y="0px"
	 viewBox="0 0 1080 1080" style="enable-background:new 0 0 1080 1080;" xml:space="preserve">
<style type="text/css">
	.st0{clip-path:url(#SVGID_00000023273123978331636110000008077470611220147879_);fill:#338FB7;}
	.st1{clip-path:url(#SVGID_00000023273123978331636110000008077470611220147879_);}
	.st2{clip-path:url(#SVGID_00000053512020185706775370000002503171196036014981_);fill:#FFFFFF;}
	.st3{clip-path:url(#SVGID_00000083779584699845610560000018121172820180847029_);fill:#EAF3F8;}
	.st4{fill:#338FB7;}
	.st5{fill:none;}
	.st6{clip-path:url(#SVGID_00000008870463878521418040000017639907458811301546_);fill:#EAF3F8;}
	.st7{clip-path:url(#SVGID_00000151527979160485412380000003065023896374445490_);}
	.st8{clip-path:url(#SVGID_00000092429926866724670870000001457904220054459054_);fill:#1E7493;}
	.st9{clip-path:url(#SVGID_00000092429926866724670870000001457904220054459054_);fill:#9BDAEA;}
	.st10{clip-path:url(#SVGID_00000092429926866724670870000001457904220054459054_);fill:#FEE182;}
	.st11{clip-path:url(#SVGID_00000092429926866724670870000001457904220054459054_);fill:#F8B6BB;}
	.st12{clip-path:url(#SVGID_00000142170255496217845110000000432533410661050007_);fill:#1E7493;}
	.st13{clip-path:url(#SVGID_00000175296521407312286310000013277833764421910677_);fill:#338FB7;}
	.st14{clip-path:url(#SVGID_00000175296521407312286310000013277833764421910677_);}
	.st15{clip-path:url(#SVGID_00000061457646366167211180000007522145051974678687_);fill:#FFFFFF;}
	.st16{clip-path:url(#SVGID_00000061457646366167211180000007522145051974678687_);fill:#338FB7;}
	.st17{clip-path:url(#SVGID_00000061457646366167211180000007522145051974678687_);fill:#E98A4A;}
	.st18{clip-path:url(#SVGID_00000061457646366167211180000007522145051974678687_);fill:#41A387;}
	.st19{clip-path:url(#SVGID_00000061457646366167211180000007522145051974678687_);fill:none;stroke:#1E7493;stroke-miterlimit:10;}
	.st20{clip-path:url(#SVGID_00000061457646366167211180000007522145051974678687_);fill:none;stroke:#338FB7;stroke-miterlimit:10;}
	.st21{clip-path:url(#SVGID_00000061457646366167211180000007522145051974678687_);fill:#F3B71C;}
	.st22{clip-path:url(#SVGID_00000061457646366167211180000007522145051974678687_);fill:none;stroke:#41A387;stroke-miterlimit:10;}
	.st23{clip-path:url(#SVGID_00000061457646366167211180000007522145051974678687_);fill:none;stroke:#F3B71C;stroke-miterlimit:10;}
	.st24{clip-path:url(#SVGID_00000061457646366167211180000007522145051974678687_);fill:none;stroke:#E98A4A;stroke-miterlimit:10;}
	.st25{clip-path:url(#SVGID_00000061457646366167211180000007522145051974678687_);fill:#1E7493;}
	.st26{clip-path:url(#SVGID_00000061457646366167211180000007522145051974678687_);fill:#9BDAEA;}
	.st27{clip-path:url(#SVGID_00000061457646366167211180000007522145051974678687_);fill:#FEE182;}
	.st28{clip-path:url(#SVGID_00000061457646366167211180000007522145051974678687_);fill:#F8B6BB;}
	.st29{clip-path:url(#SVGID_00000034791411472184893220000002865457233461148845_);fill:#1E7493;}
	.st30{clip-path:url(#SVGID_00000119084126698102668910000012805403732181314748_);fill:#1E7493;}
	.st31{clip-path:url(#SVGID_00000119084126698102668910000012805403732181314748_);fill:#41A387;}
	.st32{clip-path:url(#SVGID_00000182510618586145881540000005596746558229326252_);}
	.st33{clip-path:url(#SVGID_00000112600275743802653560000012818182137669091752_);fill:#338FB7;}
	.st34{clip-path:url(#SVGID_00000166657502035730680220000000082882645955214244_);fill:#1E7493;}
	.st35{clip-path:url(#SVGID_00000124157370835783011090000016636718238716862597_);fill:#1E7493;}
	.st36{clip-path:url(#SVGID_00000124157370835783011090000016636718238716862597_);fill:#338FB7;}
	.st37{clip-path:url(#SVGID_00000124157370835783011090000016636718238716862597_);fill:#9BDAEA;}
	.st38{clip-path:url(#SVGID_00000124157370835783011090000016636718238716862597_);fill:#FEE182;}
	.st39{clip-path:url(#SVGID_00000124157370835783011090000016636718238716862597_);fill:#F8B6BB;}
	
		.st40{clip-path:url(#SVGID_00000042018468363593769510000016563016118133175454_);fill:none;stroke:#A09F9F;stroke-width:0.957;stroke-miterlimit:10;}
	
		.st41{clip-path:url(#SVGID_00000042018468363593769510000016563016118133175454_);fill:none;stroke:#A09F9F;stroke-width:0.957;stroke-miterlimit:10;stroke-dasharray:3.615,3.615;}
	
		.st42{clip-path:url(#SVGID_00000042018468363593769510000016563016118133175454_);fill:none;stroke:#A09F9F;stroke-width:0.957;stroke-miterlimit:10;stroke-dasharray:3.644,3.644;}
	.st43{clip-path:url(#SVGID_00000042018468363593769510000016563016118133175454_);}
	.st44{clip-path:url(#SVGID_00000029005781134062721020000004326017487969684355_);fill:#1E7493;}
	.st45{clip-path:url(#SVGID_00000052085184307481387770000002914296184882095536_);fill:#1E7493;}
	
		.st46{clip-path:url(#SVGID_00000052085184307481387770000002914296184882095536_);fill:none;stroke:#D3D3D3;stroke-width:1.224;stroke-miterlimit:10;stroke-dasharray:3.827,3.827;}
	.st47{clip-path:url(#SVGID_00000179608522429678478110000018260215072832126397_);fill:#1E7493;}
	
		.st48{clip-path:url(#SVGID_00000179608522429678478110000018260215072832126397_);fill:none;stroke:#D3D3D3;stroke-width:1.224;stroke-miterlimit:10;stroke-dasharray:3.827,3.827;}
	.st49{clip-path:url(#SVGID_00000176736921143621012040000015111304568506644904_);}
	.st50{clip-path:url(#SVGID_00000110436892061382054820000008764069357768037255_);}
	.st51{clip-path:url(#SVGID_00000039832188095536104950000012427367231243970713_);}
	.st52{opacity:0.6;clip-path:url(#SVGID_00000098199906884767018860000006910522886413958272_);}
	.st53{clip-path:url(#SVGID_00000183956554056937585540000007601547604174428322_);fill:#7B2A8D;}
	.st54{clip-path:url(#SVGID_00000069374533281214795050000017178353491396009373_);fill:#1E7493;}
	.st55{clip-path:url(#SVGID_00000057146861477599369630000005452296560178185135_);fill:#1E7493;}
	.st56{clip-path:url(#SVGID_00000110436892061382054820000008764069357768037255_);fill:#C465A7;}
	.st57{clip-path:url(#SVGID_00000080888824386590716500000011523808100574035888_);fill:#1E7493;}
	.st58{opacity:0.6;clip-path:url(#SVGID_00000080888824386590716500000011523808100574035888_);}
	.st59{clip-path:url(#SVGID_00000123421636189280391460000004419749012824895639_);fill:#1E7493;}
	.st60{clip-path:url(#SVGID_00000123421636189280391460000004419749012824895639_);fill:none;stroke:#000000;stroke-miterlimit:10;}
	.st61{clip-path:url(#SVGID_00000075122775697530961700000016099976342653762751_);fill:#1E7493;}
	.st62{clip-path:url(#SVGID_00000039091657974049521500000010506427259233925788_);fill:#1E7493;}
	.st63{opacity:0.67;clip-path:url(#SVGID_00000163768953907746011310000017675855695290237828_);}
	.st64{clip-path:url(#SVGID_00000074417949128666138220000001278833430319444100_);fill:#1E7493;}
	.st65{clip-path:url(#SVGID_00000163768953907746011310000017675855695290237828_);fill:#F05253;}
	.st66{opacity:0.6;clip-path:url(#SVGID_00000163768953907746011310000017675855695290237828_);}
	.st67{clip-path:url(#SVGID_00000156581989817452106840000015441912206748566959_);fill:#1E7493;}
	.st68{opacity:0.75;clip-path:url(#SVGID_00000112614951396687381580000016896900234619491513_);}
	.st69{clip-path:url(#SVGID_00000160899472413828491450000013485360568211827584_);}
	.st70{clip-path:url(#SVGID_00000112614951396687381580000016896900234619491513_);fill:#1E7493;}
	.st71{clip-path:url(#SVGID_00000128469819501969743290000002147060727506217350_);}
	.st72{clip-path:url(#SVGID_00000053547292149132959370000002584244324577027497_);}
	.st73{opacity:0.6;clip-path:url(#SVGID_00000108277785856750215780000000308117842382807714_);}
	.st74{clip-path:url(#SVGID_00000049923692961122651030000014912291911472787850_);fill:#1E7493;}
	.st75{clip-path:url(#SVGID_00000156581231142145983770000007685239199314963344_);fill:#1E7493;}
	.st76{clip-path:url(#SVGID_00000083793454752802456900000006092522003209040815_);fill:#1E7493;}
	.st77{clip-path:url(#SVGID_00000163041412807511091270000015739058330997103017_);fill:#1E7493;}
	.st78{clip-path:url(#SVGID_00000163041412807511091270000015739058330997103017_);fill:#F05253;}
	.st79{clip-path:url(#SVGID_00000075148530081892396400000005492493334716844215_);fill:#F05253;}
	.st80{clip-path:url(#SVGID_00000035503514469927193420000018197721795324987524_);fill:none;stroke:#606161;stroke-miterlimit:10;}
	.st81{clip-path:url(#SVGID_00000035503514469927193420000018197721795324987524_);fill:#FFFFFF;}
	.st82{clip-path:url(#SVGID_00000035503514469927193420000018197721795324987524_);}
	.st83{clip-path:url(#SVGID_00000121996762124190529610000002774496008682403974_);fill:#1E7493;}
	.st84{clip-path:url(#SVGID_00000121996762124190529610000002774496008682403974_);fill:#338FB7;}
	.st85{clip-path:url(#SVGID_00000121996762124190529610000002774496008682403974_);fill:#69B9D6;}
	.st86{clip-path:url(#SVGID_00000121996762124190529610000002774496008682403974_);fill:#A7DCE8;}
	.st87{clip-path:url(#SVGID_00000008831736706721984060000005908218787494295436_);fill:#41A387;}
	.st88{clip-path:url(#SVGID_00000008831736706721984060000005908218787494295436_);fill:#68BCA0;}
	.st89{clip-path:url(#SVGID_00000008831736706721984060000005908218787494295436_);fill:#91D1BB;}
	.st90{clip-path:url(#SVGID_00000008831736706721984060000005908218787494295436_);fill:#F3B71C;}
	.st91{clip-path:url(#SVGID_00000008831736706721984060000005908218787494295436_);fill:#F9CF71;}
	.st92{clip-path:url(#SVGID_00000008831736706721984060000005908218787494295436_);fill:#FFDB94;}
	.st93{clip-path:url(#SVGID_00000051380089361967159680000005332391108575701382_);fill:#E98A4A;}
	.st94{clip-path:url(#SVGID_00000051380089361967159680000005332391108575701382_);fill:#F4A56E;}
	.st95{clip-path:url(#SVGID_00000051380089361967159680000005332391108575701382_);fill:#FCC6A0;}
	
		.st96{clip-path:url(#SVGID_00000111885489436266780420000010163515675094526851_);fill:none;stroke:#A09F9F;stroke-width:0.254;stroke-miterlimit:10;}
	
		.st97{clip-path:url(#SVGID_00000111885489436266780420000010163515675094526851_);fill:none;stroke:#A09F9F;stroke-width:0.259;stroke-miterlimit:10;}
	
		.st98{clip-path:url(#SVGID_00000111885489436266780420000010163515675094526851_);fill:none;stroke:#A09F9F;stroke-width:0.272;stroke-miterlimit:10;}
	.st99{clip-path:url(#SVGID_00000111885489436266780420000010163515675094526851_);}
	.st100{clip-path:url(#SVGID_00000045619136442864624930000016819442135525124737_);fill:#1E7493;}
	.st101{clip-path:url(#SVGID_00000137130417332236688950000007151805642559111821_);fill:#1E7493;}
	.st102{clip-path:url(#SVGID_00000060711407879550116330000011573589674387852183_);}
	.st103{clip-path:url(#SVGID_00000023254508957238599320000012157658617865471881_);fill:#1E7493;}
	
		.st104{clip-path:url(#SVGID_00000019665116016237866200000002436558852113154694_);fill:none;stroke:#A09F9F;stroke-width:0.259;stroke-miterlimit:10;}
	
		.st105{clip-path:url(#SVGID_00000019665116016237866200000002436558852113154694_);fill:none;stroke:#A09F9F;stroke-width:0.272;stroke-miterlimit:10;}
	
		.st106{clip-path:url(#SVGID_00000052787260680134261040000015204732383446821014_);fill:none;stroke:#A09F9F;stroke-width:0.272;stroke-miterlimit:10;}
	
		.st107{clip-path:url(#SVGID_00000110428894775796019060000010038166347979291314_);fill:none;stroke:#A09F9F;stroke-width:0.254;stroke-miterlimit:10;}
	.st108{clip-path:url(#SVGID_00000024704971524504862400000004975885589832829577_);fill:#1E7493;}
	.st109{clip-path:url(#SVGID_00000041999073896386384620000002095476601530424500_);}
	.st110{clip-path:url(#SVGID_00000164514634272265950390000009253221033832482986_);fill:#1E7493;}
	
		.st111{clip-path:url(#SVGID_00000020400821304941190490000001271193585430817194_);fill:none;stroke:#A09F9F;stroke-width:0.254;stroke-miterlimit:10;}
	
		.st112{clip-path:url(#SVGID_00000083788671244190469240000000024562194747934340_);fill:none;stroke:#A09F9F;stroke-width:0.259;stroke-miterlimit:10;}
	
		.st113{clip-path:url(#SVGID_00000083788671244190469240000000024562194747934340_);fill:none;stroke:#A09F9F;stroke-width:0.272;stroke-miterlimit:10;}
	
		.st114{clip-path:url(#SVGID_00000160179162333966707730000010266780968683272349_);fill:none;stroke:#A09F9F;stroke-width:0.272;stroke-miterlimit:10;}
	.st115{clip-path:url(#SVGID_00000183227893010811175540000007301552779800008122_);fill:#1E7493;}
	.st116{clip-path:url(#SVGID_00000135655245994842632230000015148463296525465996_);}
	.st117{clip-path:url(#SVGID_00000166646272177235517180000003455737237052785060_);fill:#9BDAEA;}
	.st118{clip-path:url(#SVGID_00000166646272177235517180000003455737237052785060_);fill:#FEE182;}
	.st119{clip-path:url(#SVGID_00000166646272177235517180000003455737237052785060_);fill:#F8B6BB;}
	.st120{clip-path:url(#SVGID_00000166646272177235517180000003455737237052785060_);fill:#1E7493;}
	.st121{fill:#FFFFFF;}
	.st122{fill:#82CA9C;}
	.st123{fill:#3D3633;}
	.st124{fill:#1A1A18;}
	.st125{fill:#676767;}
	.st126{fill:#F6E4DB;}
	.st127{fill:#DE956D;}
	.st128{fill:none;stroke:#000000;stroke-width:1.2094;stroke-miterlimit:10;}
	.st129{fill:none;stroke:#1A1A18;stroke-width:1.2094;stroke-miterlimit:10;}
</style>
<g>
	<g>
		<path class="st121" d="M228.73,672.57c19.56,0,30.97,10.4,30.97,26.58c0,15.92-13.04,26.2-30.71,26.2c-5.52,0-10.4-0.5-14.67-1.38
			v26.82h-14.04v-78.22H228.73z M245.53,698.89c0-9.15-6.52-14.04-17.55-14.04h-13.66v27.2c4.01,0.62,8.53,1,13.66,1
			C238.89,713.05,245.53,707.92,245.53,698.89"/>
		<path class="st121" d="M280.63,691.75c1,2.63,1.63,5.51,1.75,8.9c4.39-6.52,10.9-10.28,18.93-10.28c4.39,0,7.02,0.88,9.65,2.76
			l-4.63,11.15c-1.88-0.87-4.01-1.38-6.52-1.38c-9.53,0-16.54,6.4-16.54,18.8v29.08h-13.79v-59.04H280.63z"/>
		<path class="st121" d="M312.73,734.24c0-10.65,8.53-18.68,24.44-18.68c6.4,0,12.03,0.87,16.8,2.76v-1.13
			c0-10.53-5.52-15.41-14.41-15.41c-7.14,0-12.42,1.63-18.43,6.27l-6.77-8.14c7.9-7.02,15.54-9.53,26.7-9.53
			c7.65,0,13.91,2.26,18.8,6.77c4.89,4.51,7.27,11.16,7.27,19.81v33.84h-10.41c-0.87-2.38-1.38-5.27-1.75-8.65
			c-4.13,6.14-11.03,10.03-20.93,10.03C320.38,752.17,312.73,744.64,312.73,734.24 M353.59,727.72l0.13-0.75
			c-4.63-1.38-9.4-2-14.29-2c-9.66,0-13.66,3.13-13.66,8.78c0,5.39,4.13,7.65,10.27,7.65C346.58,741.39,352.97,735.87,353.59,727.72
			"/>
		<path class="st121" d="M380.05,725.09v-49.64h13.92v16.3h24.44v11.78h-24.44v22.19c0,9.53,4.26,14.41,11.78,14.41
			c3.63,0,7.9-1.38,11.03-3.75l5.89,8.77c-4.89,4.64-11.03,7.02-18.68,7.02C388.45,752.16,380.05,743.01,380.05,725.09"/>
		<path class="st121" d="M443.48,666.3v33.09c4.64-5.89,11.16-9.03,19.18-9.03c15.04,0,23.56,9.27,23.56,26.95v33.47h-13.92v-33.97
			c0-9.52-4.39-14.41-12.28-14.41c-10.16,0-16.55,6.89-16.55,19.05v29.34h-13.78V666.3H443.48z"/>
		<path class="st121" d="M498.01,673.95c0-4.64,3.38-8.15,8.4-8.15c5.01,0,8.4,3.51,8.4,8.15c0,4.63-3.39,8.15-8.4,8.15
			C501.39,682.1,498.01,678.58,498.01,673.95 M499.52,691.75h13.78v59.04h-13.78V691.75z"/>
		<path class="st121" d="M541.13,666.3v47.01c2.51,0.25,4.89,0.38,7.02,0.38c6.64,0,11.53-1.63,14.91-4.89
			c3.26-3.14,5.39-8.9,6.4-17.05h12.03c-0.62,13.92-5.64,23.69-15.16,29.08l19.31,29.96h-16.17l-15.8-26.08
			c-1.13,0.26-3.01,0.38-5.64,0.38c-2.13,0-4.52-0.12-6.9-0.38v26.08h-13.54V666.3H541.13z"/>
		<path class="st121" d="M587.77,742.26l6.39-8.02c5.02,4.64,10.91,6.4,18.93,6.4c7.02,0,10.78-1.76,10.78-6.64
			c0-4.52-3.76-6.52-12.41-7.65c-13.67-1.88-20.94-6.89-20.94-18.3c0-10.15,9.66-17.67,23.57-17.67c9.91,0,16.68,3.01,23.07,9.4
			l-6.77,7.77c-4.89-4.64-9.15-6.02-16.04-6.02c-6.9,0-10.4,2.13-10.4,6.52c0,4.39,2.88,5.51,12.53,7.14
			c13.54,2.38,21.18,7.02,21.18,18.55c0,10.28-8.9,18.43-23.31,18.43C602.31,752.16,594.29,748.91,587.77,742.26"/>
		<path class="st121" d="M662.36,666.3v33.09c4.64-5.89,11.15-9.03,19.18-9.03c15.04,0,23.57,9.27,23.57,26.95v33.47h-13.92v-33.97
			c0-9.52-4.39-14.41-12.28-14.41c-10.15,0-16.54,6.89-16.54,19.05v29.34h-13.79V666.3H662.36z"/>
		<path class="st121" d="M715.38,734.24c0-10.65,8.53-18.68,24.44-18.68c6.4,0,12.03,0.87,16.8,2.76v-1.13
			c0-10.53-5.52-15.41-14.41-15.41c-7.14,0-12.41,1.63-18.43,6.27l-6.77-8.14c7.9-7.02,15.54-9.53,26.7-9.53
			c7.65,0,13.91,2.26,18.8,6.77c4.89,4.51,7.27,11.16,7.27,19.81v33.84h-10.41c-0.87-2.38-1.38-5.27-1.75-8.65
			c-4.13,6.14-11.03,10.03-20.93,10.03C723.03,752.17,715.38,744.64,715.38,734.24 M756.25,727.72l0.13-0.75
			c-4.63-1.38-9.4-2-14.29-2c-9.66,0-13.66,3.13-13.66,8.78c0,5.39,4.13,7.65,10.27,7.65C749.23,741.39,755.62,735.87,756.25,727.72
			"/>
		<path class="st121" d="M794.36,691.75c0.87,2.13,1.38,5.02,1.75,8.65c4.89-6.64,11.4-10.03,19.56-10.03
			c9.4,0,16.04,3.76,19.68,11.41c4.52-7.4,12.04-11.41,21.69-11.41c14.67,0,22.68,9.28,22.68,27.2v33.22h-13.78v-33.84
			c0-9.66-3.89-14.54-11.66-14.54c-10.02,0-15.79,6.64-15.79,19.06v29.33h-13.91v-33.84c0-9.53-4.14-14.54-11.78-14.54
			c-9.91,0-15.8,6.9-15.8,19.06v29.33h-13.78v-59.04H794.36z"/>
	</g>
	<g>
		<path class="st122" d="M455.26,527.26c0-4.02,2.25-7.59,5.88-9.3c3.58-1.7,7.87-1.16,10.94,1.36
			c12.47,10.22,37.89,17.34,68.53,3.76c6.77-3.2,12.77-8.44,17.16-15.08c0.68-1,1.34-2.02,1.95-3.06
			c-25.11,10.29-50.56,11.24-70.18,4.48c-5.73-1.98-11.1-5.09-15.95-9.26c-4.65-4-8.54-8.71-11.55-14.01
			c-6-10.5-8.11-22.95-5.94-35.03c1.81-10.89,7.63-21.41,16.82-30.31c1.6-1.69,3.28-3,4.76-4.16c0.53-0.42,1.07-0.83,1.59-1.27
			c0.31-0.26,0.63-0.49,0.97-0.7c0.58-0.36,1.15-0.74,1.72-1.12c1.53-1.02,3.26-2.17,5.31-3.14c4.64-2.54,9.88-4.44,16.02-5.8
			c6.15-1.49,12.32-1.47,16.99-1.28c5.29,0.31,10.55,1.38,16.72,3.39c0.12,0.05,0.24,0.08,0.36,0.13c10,3.75,19.5,10.27,27.49,18.83
			c7.5,8.02,13.21,18,16.49,28.83c1.52,4.96,2.52,10.09,2.99,15.27c7.3-6.19,14.35-13.66,20.91-22.58l12.07-15.95
			c-4.47-10.23-10.69-19.57-18.5-27.51c-10.48-9.7-22.14-16.59-34.39-20.98c-12.26-4.39-25.13-6.3-38.05-6.02
			c-12.17,0.34-24.41,2.79-36.23,6.92c-80.73,28.17-112.22,126.65-56.32,183.81c6.39,6.54,13.6,12.14,21.47,16.54L455.26,527.26z"/>
		<path class="st122" d="M552.24,437.5c-6.14-6.58-13.31-11.56-20.77-14.39c-4.64-1.5-8.47-2.3-12.03-2.51
			c-3.4-0.14-8.01-0.18-12.23,0.85c-4.78,1.06-8.59,2.43-11.83,4.23c-0.2,0.11-0.39,0.21-0.6,0.3c-0.95,0.44-2.02,1.15-3.25,1.96
			c-0.56,0.37-1.12,0.74-1.68,1.1c-0.51,0.41-1.03,0.81-1.54,1.22c-1.13,0.88-2.21,1.73-2.94,2.51c-0.1,0.11-0.21,0.23-0.32,0.33
			c-6.49,6.25-10.74,13.69-11.94,20.96c-1.45,8.09-0.01,16.63,3.93,23.53c2.04,3.59,4.66,6.77,7.8,9.46
			c3.18,2.74,6.67,4.77,10.33,6.03c15.93,5.49,44.26,4.87,72-11.15c0.67-7.44-0.13-15.13-2.35-22.36
			C562.3,451.23,557.95,443.61,552.24,437.5"/>
		<path class="st122" d="M619.1,457.56c-10.75,14.64-23.12,26.2-36.13,34.94c-2.02,9.05-5.74,17.65-10.87,25.16
			c-6.06,9.15-14.49,16.5-24.3,21.13c-30.52,13.53-57.42,9.99-75.25,1.17l0.03,51.36c6.43,1.87,13.16,2.96,20.17,3.13
			c0.02,0,0.04,0,0.07,0.01c46.42,3.04,82.9-19.98,108.81-54.59c4.72-6.3,8.73-13.07,12-20.12c1.31-2.82,2.55-5.66,3.7-8.51
			c8.19-20.13,9.94-40.76,6.29-59.65L619.1,457.56z"/>
		<path class="st122" d="M643.6,416.61c-0.76-0.11-1.5-0.45-2.11-1c-1.62-1.49-1.74-4.01-0.25-5.63l8.03-8.77
			c6.59-7.81,10.89-14.23,13.82-20.7c0.91-2.01,3.27-2.89,5.28-1.99c2,0.91,2.89,3.27,1.98,5.27c-3.24,7.16-7.9,14.15-15.1,22.67
			l-8.14,8.89C646.19,416.37,644.86,416.8,643.6,416.61"/>
		<path class="st122" d="M674.3,372.02c0-0.02,0.01-0.04,0.01-0.05l-0.01,0c0.42-2.12-0.93-4.21-3.06-4.67
			c-0.09-0.02-0.18-0.03-0.26-0.05c-2.04-0.3-3.98,1.01-4.45,3.03h0v0.02c0,0.01-0.01,0.03-0.02,0.05l0.01,0
			c-0.42,2.13,0.94,4.21,3.06,4.67c0.09,0.02,0.18,0.04,0.26,0.05c2.04,0.31,3.98-1.01,4.46-3.03
			C674.29,372.03,674.29,372.03,674.3,372.02"/>
		<path class="st121" d="M648.05,334.17l-6.42-5.4c-1.68-1.41-4.2-1.2-5.62,0.49l-5.4,6.42c-10.5,12.49-11.53,29.8-3.92,43.23
			c-7.82-0.29-15.69,2.87-21.11,9.3l-3.54,4.21c-1.42,1.69-1.2,4.2,0.48,5.62l4.21,3.54c3.77,3.17,8.25,5.18,13,5.88
			c2.02,0.3,4.09,0.36,6.17,0.19c6.99-0.61,13.32-3.9,17.84-9.26l3.54-4.21v0l5.4-6.42C666.18,371.69,664.1,347.66,648.05,334.17"/>
	</g>
</g>
</svg>
